<?xml version="1.0" encoding="UTF-8" standalone="no"?>
<!DOCTYPE svg PUBLIC "-//W3C//DTD SVG 1.1//EN" "http://www.w3.org/Graphics/SVG/1.1/DTD/svg11.dtd">
<!-- Generated by graphviz version 2.40.1 (20161225.0304)
 -->
<!-- Title: %0 Pages: 1 -->
<svg width="644pt" height="399pt" viewBox="0.00 0.00 644.48 399.20" xmlns="http://www.w3.org/2000/svg" xmlns:xlink="http://www.w3.org/1999/xlink">
<g id="graph0" class="graph" transform="scale(1 1) rotate(0) translate(4 395.2)">
<title>%0</title>
<polygon fill="#ffffff" stroke="transparent" points="-4,4 -4,-395.2 640.4835,-395.2 640.4835,4 -4,4"/>
<!-- VPVL -->
<g id="node1" class="node">
<title>VPVL</title>
<ellipse fill="none" stroke="#000000" cx="364.5929" cy="-195.6" rx="36.4955" ry="18"/>
<text text-anchor="middle" x="364.5929" y="-191.4" font-family="Times,serif" font-size="14.00" fill="#000000">VPVL</text>
</g>
<!-- STKFG -->
<g id="node2" class="node">
<title>STKFG</title>
<ellipse fill="none" stroke="#000000" cx="356.5929" cy="-106.8" rx="41.7308" ry="18"/>
<text text-anchor="middle" x="356.5929" y="-102.6" font-family="Times,serif" font-size="14.00" fill="#000000">STKFG</text>
</g>
<!-- VPVL&#45;&gt;STKFG -->
<g id="edge1" class="edge">
<title>VPVL-&gt;STKFG</title>
<path fill="none" stroke="#000000" d="M360.4883,-177.3747C359.3788,-171.709 358.3162,-165.4221 357.7023,-159.6 356.8694,-151.7014 356.4731,-143.1026 356.3134,-135.1819"/>
<polygon fill="#000000" stroke="#000000" points="359.8111,-134.8995 356.2233,-124.9307 352.8114,-134.9611 359.8111,-134.8995"/>
<text text-anchor="middle" x="366.5382" y="-147" font-family="Times,serif" font-size="14.00" fill="#000000">2:1</text>
</g>
<!-- HVMC -->
<g id="node10" class="node">
<title>HVMC</title>
<ellipse fill="none" stroke="#000000" cx="206.5929" cy="-106.8" rx="40.007" ry="18"/>
<text text-anchor="middle" x="206.5929" y="-102.6" font-family="Times,serif" font-size="14.00" fill="#000000">HVMC</text>
</g>
<!-- VPVL&#45;&gt;HVMC -->
<g id="edge20" class="edge">
<title>VPVL-&gt;HVMC</title>
<path fill="none" stroke="#000000" d="M337.2746,-183.7282C331.5051,-181.4888 325.4034,-179.3148 319.5929,-177.6 279.6783,-165.8205 259.7471,-186.1529 227.7023,-159.6 220.0544,-153.2628 215.1574,-143.7516 212.0303,-134.54"/>
<polygon fill="#000000" stroke="#000000" points="215.3729,-133.4977 209.2854,-124.8263 208.6367,-135.4013 215.3729,-133.4977"/>
<text text-anchor="middle" x="237.5382" y="-147" font-family="Times,serif" font-size="14.00" fill="#000000">2:3</text>
</g>
<!-- GNMV -->
<g id="node11" class="node">
<title>GNMV</title>
<ellipse fill="none" stroke="#000000" cx="549.5929" cy="-106.8" rx="40.5693" ry="18"/>
<text text-anchor="middle" x="549.5929" y="-102.6" font-family="Times,serif" font-size="14.00" fill="#000000">GNMV</text>
</g>
<!-- VPVL&#45;&gt;GNMV -->
<g id="edge24" class="edge">
<title>VPVL-&gt;GNMV</title>
<path fill="none" stroke="#000000" d="M370.3033,-177.6393C374.9845,-165.8835 382.8044,-151.1964 394.7023,-142.8 431.9169,-116.5374 451.451,-136.0314 495.5929,-124.8 499.687,-123.7583 503.9197,-122.5625 508.1304,-121.2932"/>
<polygon fill="#000000" stroke="#000000" points="509.3529,-124.5778 517.84,-118.236 507.2505,-117.9009 509.3529,-124.5778"/>
<text text-anchor="middle" x="403.5382" y="-147" font-family="Times,serif" font-size="14.00" fill="#000000">9:6</text>
</g>
<!-- FUEL -->
<g id="node8" class="node">
<title>FUEL</title>
<ellipse fill="none" stroke="#000000" cx="442.5929" cy="-18" rx="35.3509" ry="18"/>
<text text-anchor="middle" x="442.5929" y="-13.8" font-family="Times,serif" font-size="14.00" fill="#000000">FUEL</text>
</g>
<!-- STKFG&#45;&gt;FUEL -->
<g id="edge7" class="edge">
<title>STKFG-&gt;FUEL</title>
<path fill="none" stroke="#000000" d="M372.7688,-90.0974C385.9448,-76.4924 404.7155,-57.1106 419.477,-41.8685"/>
<polygon fill="#000000" stroke="#000000" points="422.3373,-43.9461 426.78,-34.3277 417.3089,-39.0762 422.3373,-43.9461"/>
<text text-anchor="middle" x="419.0382" y="-58.2" font-family="Times,serif" font-size="14.00" fill="#000000">53:1</text>
</g>
<!-- FWMGM -->
<g id="node3" class="node">
<title>FWMGM</title>
<ellipse fill="none" stroke="#000000" cx="260.5929" cy="-195.6" rx="49.8194" ry="18"/>
<text text-anchor="middle" x="260.5929" y="-191.4" font-family="Times,serif" font-size="14.00" fill="#000000">FWMGM</text>
</g>
<!-- FWMGM&#45;&gt;STKFG -->
<g id="edge2" class="edge">
<title>FWMGM-&gt;STKFG</title>
<path fill="none" stroke="#000000" d="M279.1027,-178.4785C293.8988,-164.792 314.7989,-145.4595 331.1654,-130.3204"/>
<polygon fill="#000000" stroke="#000000" points="333.8247,-132.6283 338.7891,-123.2685 329.0714,-127.4896 333.8247,-132.6283"/>
<text text-anchor="middle" x="325.5382" y="-147" font-family="Times,serif" font-size="14.00" fill="#000000">7:1</text>
</g>
<!-- FWMGM&#45;&gt;HVMC -->
<g id="edge19" class="edge">
<title>FWMGM-&gt;HVMC</title>
<path fill="none" stroke="#000000" d="M219.7567,-185.1037C206.9381,-179.6766 194.191,-171.5788 186.7023,-159.6 181.5381,-151.3394 183.3883,-141.5284 187.5823,-132.6183"/>
<polygon fill="#000000" stroke="#000000" points="190.7164,-134.1869 192.6056,-123.7618 184.6275,-130.7334 190.7164,-134.1869"/>
<text text-anchor="middle" x="196.5382" y="-147" font-family="Times,serif" font-size="14.00" fill="#000000">2:3</text>
</g>
<!-- CXFTF -->
<g id="node4" class="node">
<title>CXFTF</title>
<ellipse fill="none" stroke="#000000" cx="459.5929" cy="-195.6" rx="41.1684" ry="18"/>
<text text-anchor="middle" x="459.5929" y="-191.4" font-family="Times,serif" font-size="14.00" fill="#000000">CXFTF</text>
</g>
<!-- CXFTF&#45;&gt;STKFG -->
<g id="edge3" class="edge">
<title>CXFTF-&gt;STKFG</title>
<path fill="none" stroke="#000000" d="M447.7614,-178.122C439.7864,-167.1528 428.5662,-153.1725 416.5929,-142.8 409.3781,-136.5499 400.9395,-130.7449 392.7081,-125.7006"/>
<polygon fill="#000000" stroke="#000000" points="394.3202,-122.5884 383.9251,-120.5406 390.7743,-128.6239 394.3202,-122.5884"/>
<text text-anchor="middle" x="440.5382" y="-147" font-family="Times,serif" font-size="14.00" fill="#000000">2:1</text>
</g>
<!-- CXFTF&#45;&gt;FUEL -->
<g id="edge11" class="edge">
<title>CXFTF-&gt;FUEL</title>
<path fill="none" stroke="#000000" d="M457.8693,-177.5934C454.9037,-146.612 448.8153,-83.006 445.286,-46.1346"/>
<polygon fill="#000000" stroke="#000000" points="448.7581,-45.6752 444.3211,-36.0543 441.7899,-46.3423 448.7581,-45.6752"/>
<text text-anchor="middle" x="465.0382" y="-102.6" font-family="Times,serif" font-size="14.00" fill="#000000">68:1</text>
</g>
<!-- CXFTF&#45;&gt;HVMC -->
<g id="edge21" class="edge">
<title>CXFTF-&gt;HVMC</title>
<path fill="none" stroke="#000000" d="M428.9726,-183.3973C422.6411,-181.2094 415.9599,-179.1393 409.5929,-177.6 349.0906,-162.9724 327.8156,-184.35 270.7023,-159.6 262.1068,-155.8752 245.7207,-142.3289 231.6669,-129.8909"/>
<polygon fill="#000000" stroke="#000000" points="233.9458,-127.2334 224.1635,-123.1644 229.2733,-132.4456 233.9458,-127.2334"/>
<text text-anchor="middle" x="284.0382" y="-147" font-family="Times,serif" font-size="14.00" fill="#000000">19:3</text>
</g>
<!-- CXFTF&#45;&gt;GNMV -->
<g id="edge25" class="edge">
<title>CXFTF-&gt;GNMV</title>
<path fill="none" stroke="#000000" d="M473.4493,-178.3079C482.2702,-167.6708 494.1688,-153.9824 505.7023,-142.8 510.4385,-138.208 515.6986,-133.5561 520.885,-129.1895"/>
<polygon fill="#000000" stroke="#000000" points="523.3846,-131.6656 528.8882,-122.6124 518.9401,-126.2575 523.3846,-131.6656"/>
<text text-anchor="middle" x="518.0382" y="-147" font-family="Times,serif" font-size="14.00" fill="#000000">37:6</text>
</g>
<!-- MNCFX -->
<g id="node5" class="node">
<title>MNCFX</title>
<ellipse fill="none" stroke="#000000" cx="167.5929" cy="-284.4" rx="45.2439" ry="18"/>
<text text-anchor="middle" x="167.5929" y="-280.2" font-family="Times,serif" font-size="14.00" fill="#000000">MNCFX</text>
</g>
<!-- MNCFX&#45;&gt;STKFG -->
<g id="edge4" class="edge">
<title>MNCFX-&gt;STKFG</title>
<path fill="none" stroke="#000000" d="M162.9501,-266.1167C156.5725,-236.2946 149.0819,-177.0764 179.5929,-142.8 183.9176,-137.9416 257.0032,-124.256 307.8919,-115.2279"/>
<polygon fill="#000000" stroke="#000000" points="308.5074,-118.6735 317.7467,-113.4884 307.2906,-111.7801 308.5074,-118.6735"/>
<text text-anchor="middle" x="175.0382" y="-191.4" font-family="Times,serif" font-size="14.00" fill="#000000">11:1</text>
</g>
<!-- MNCFX&#45;&gt;FWMGM -->
<g id="edge14" class="edge">
<title>MNCFX-&gt;FWMGM</title>
<path fill="none" stroke="#000000" d="M185.0855,-267.6974C199.2838,-254.1403 219.4897,-234.8469 235.4268,-219.6296"/>
<polygon fill="#000000" stroke="#000000" points="238.0471,-221.9669 242.8625,-212.5296 233.213,-216.9041 238.0471,-221.9669"/>
<text text-anchor="middle" x="235.0382" y="-235.8" font-family="Times,serif" font-size="14.00" fill="#000000">37:5</text>
</g>
<!-- MNCFX&#45;&gt;FUEL -->
<g id="edge8" class="edge">
<title>MNCFX-&gt;FUEL</title>
<path fill="none" stroke="#000000" d="M126.1849,-276.9829C91.903,-270.208 46.4939,-259.5712 31.5929,-248.4 -6.1236,-220.124 -10.4562,-177.2658 21.7023,-142.8 73.7508,-87.0171 301.8085,-42.1562 398.7459,-25.2512"/>
<polygon fill="#000000" stroke="#000000" points="399.546,-28.665 408.8052,-23.5155 398.3556,-21.7669 399.546,-28.665"/>
<text text-anchor="middle" x="31.5382" y="-147" font-family="Times,serif" font-size="14.00" fill="#000000">6:1</text>
</g>
<!-- MNCFX&#45;&gt;HVMC -->
<g id="edge17" class="edge">
<title>MNCFX-&gt;HVMC</title>
<path fill="none" stroke="#000000" d="M129.4641,-274.6383C76.0996,-259.0226 -10.9773,-225.2583 20.7023,-177.6 36.7096,-153.5189 111.3198,-130.6468 161.0128,-117.7067"/>
<polygon fill="#000000" stroke="#000000" points="162.081,-121.0462 170.9012,-115.1765 160.3457,-114.2647 162.081,-121.0462"/>
<text text-anchor="middle" x="30.5382" y="-191.4" font-family="Times,serif" font-size="14.00" fill="#000000">5:3</text>
</g>
<!-- MNCFX&#45;&gt;GNMV -->
<g id="edge23" class="edge">
<title>MNCFX-&gt;GNMV</title>
<path fill="none" stroke="#000000" d="M210.4558,-278.434C282.2129,-268.4313 419.1168,-249.2776 421.5929,-248.4 435.2718,-243.5519 436.3177,-237.4638 449.5929,-231.6 475.0599,-220.351 489.1403,-232.4892 509.5929,-213.6 531.7658,-193.122 541.7155,-159.162 546.1369,-135.0378"/>
<polygon fill="#000000" stroke="#000000" points="549.6107,-135.4813 547.7583,-125.0496 542.7011,-134.3596 549.6107,-135.4813"/>
<text text-anchor="middle" x="541.5382" y="-191.4" font-family="Times,serif" font-size="14.00" fill="#000000">7:6</text>
</g>
<!-- RFSQX -->
<g id="node13" class="node">
<title>RFSQX</title>
<ellipse fill="none" stroke="#000000" cx="89.5929" cy="-195.6" rx="42.3126" ry="18"/>
<text text-anchor="middle" x="89.5929" y="-191.4" font-family="Times,serif" font-size="14.00" fill="#000000">RFSQX</text>
</g>
<!-- MNCFX&#45;&gt;RFSQX -->
<g id="edge29" class="edge">
<title>MNCFX-&gt;RFSQX</title>
<path fill="none" stroke="#000000" d="M152.3201,-267.2091C147.0464,-261.2599 141.1064,-254.5442 135.7023,-248.4 127.7024,-239.3046 118.9532,-229.3004 111.2466,-220.4689"/>
<polygon fill="#000000" stroke="#000000" points="113.7239,-217.9844 104.5137,-212.7478 108.4481,-222.585 113.7239,-217.9844"/>
<text text-anchor="middle" x="145.5382" y="-235.8" font-family="Times,serif" font-size="14.00" fill="#000000">6:4</text>
</g>
<!-- NVRVD -->
<g id="node6" class="node">
<title>NVRVD</title>
<ellipse fill="none" stroke="#000000" cx="454.5929" cy="-284.4" rx="45.2247" ry="18"/>
<text text-anchor="middle" x="454.5929" y="-280.2" font-family="Times,serif" font-size="14.00" fill="#000000">NVRVD</text>
</g>
<!-- NVRVD&#45;&gt;VPVL -->
<g id="edge5" class="edge">
<title>NVRVD-&gt;VPVL</title>
<path fill="none" stroke="#000000" d="M437.6646,-267.6974C423.7492,-253.9676 403.8711,-234.3545 388.3598,-219.05"/>
<polygon fill="#000000" stroke="#000000" points="390.7178,-216.4597 381.1412,-211.9277 385.8014,-221.4426 390.7178,-216.4597"/>
<text text-anchor="middle" x="430.0382" y="-235.8" font-family="Times,serif" font-size="14.00" fill="#000000">17:8</text>
</g>
<!-- NVRVD&#45;&gt;CXFTF -->
<g id="edge27" class="edge">
<title>NVRVD-&gt;CXFTF</title>
<path fill="none" stroke="#000000" d="M474.3887,-267.9569C479.7078,-262.3637 484.7651,-255.6697 487.5929,-248.4 491.2603,-238.9717 488.0727,-229.0663 482.7197,-220.4148"/>
<polygon fill="#000000" stroke="#000000" points="485.5113,-218.3022 476.8185,-212.2454 479.8369,-222.4012 485.5113,-218.3022"/>
<text text-anchor="middle" x="497.5382" y="-235.8" font-family="Times,serif" font-size="14.00" fill="#000000">1:8</text>
</g>
<!-- JNWZP -->
<g id="node7" class="node">
<title>JNWZP</title>
<ellipse fill="none" stroke="#000000" cx="348.5929" cy="-284.4" rx="42.2932" ry="18"/>
<text text-anchor="middle" x="348.5929" y="-280.2" font-family="Times,serif" font-size="14.00" fill="#000000">JNWZP</text>
</g>
<!-- JNWZP&#45;&gt;VPVL -->
<g id="edge6" class="edge">
<title>JNWZP-&gt;VPVL</title>
<path fill="none" stroke="#000000" d="M350.0057,-266.2115C350.9729,-255.9832 352.4875,-243.0142 354.7023,-231.6 355.2282,-228.8898 355.8529,-226.0849 356.5289,-223.2918"/>
<polygon fill="#000000" stroke="#000000" points="359.9671,-223.9785 359.1178,-213.4177 353.196,-222.2031 359.9671,-223.9785"/>
<text text-anchor="middle" x="363.5382" y="-235.8" font-family="Times,serif" font-size="14.00" fill="#000000">3:8</text>
</g>
<!-- VJHF -->
<g id="node9" class="node">
<title>VJHF</title>
<ellipse fill="none" stroke="#000000" cx="551.5929" cy="-284.4" rx="34.2065" ry="18"/>
<text text-anchor="middle" x="551.5929" y="-280.2" font-family="Times,serif" font-size="14.00" fill="#000000">VJHF</text>
</g>
<!-- VJHF&#45;&gt;FWMGM -->
<g id="edge13" class="edge">
<title>VJHF-&gt;FWMGM</title>
<path fill="none" stroke="#000000" d="M542.8885,-266.7772C535.9171,-254.695 524.9361,-239.4777 510.5929,-231.6 473.2255,-211.0767 361.4171,-221.8624 319.5929,-213.6 315.4561,-212.7828 311.1961,-211.7911 306.9487,-210.698"/>
<polygon fill="#000000" stroke="#000000" points="307.6946,-207.2733 297.1246,-207.9977 305.8393,-214.023 307.6946,-207.2733"/>
<text text-anchor="middle" x="542.0382" y="-235.8" font-family="Times,serif" font-size="14.00" fill="#000000">22:5</text>
</g>
<!-- VJHF&#45;&gt;FUEL -->
<g id="edge9" class="edge">
<title>VJHF-&gt;FUEL</title>
<path fill="none" stroke="#000000" d="M563.7061,-267.4371C587.4822,-231.8691 634.9857,-147.8948 599.5929,-88.8 576.1414,-49.6433 524.8354,-32.0104 487.2316,-24.155"/>
<polygon fill="#000000" stroke="#000000" points="487.5048,-20.6434 477.0233,-22.1889 486.1809,-27.517 487.5048,-20.6434"/>
<text text-anchor="middle" x="624.0382" y="-147" font-family="Times,serif" font-size="14.00" fill="#000000">46:1</text>
</g>
<!-- VJHF&#45;&gt;GNMV -->
<g id="edge22" class="edge">
<title>VJHF-&gt;GNMV</title>
<path fill="none" stroke="#000000" d="M555.8391,-266.1852C556.9693,-260.52 558.0313,-254.2307 558.5929,-248.4 563.0927,-201.6829 564.3274,-189.3817 558.5929,-142.8 558.2761,-140.2264 557.8364,-137.5721 557.3203,-134.9262"/>
<polygon fill="#000000" stroke="#000000" points="560.6819,-133.9246 555.0497,-124.9509 553.8565,-135.4783 560.6819,-133.9246"/>
<text text-anchor="middle" x="570.5382" y="-191.4" font-family="Times,serif" font-size="14.00" fill="#000000">5:6</text>
</g>
<!-- VJHF&#45;&gt;RFSQX -->
<g id="edge28" class="edge">
<title>VJHF-&gt;RFSQX</title>
<path fill="none" stroke="#000000" d="M524.4888,-273.0546C499.3818,-262.5429 465.8736,-248.5072 465.7023,-248.4 456.1153,-242.4023 457.0503,-235.9041 446.5929,-231.6 384.6278,-206.0962 211.4534,-225.9499 145.5929,-213.6 140.8848,-212.7172 136.022,-211.5535 131.2192,-210.2417"/>
<polygon fill="#000000" stroke="#000000" points="132.0954,-206.8511 121.5139,-207.3831 130.1176,-213.5659 132.0954,-206.8511"/>
<text text-anchor="middle" x="474.5382" y="-235.8" font-family="Times,serif" font-size="14.00" fill="#000000">1:4</text>
</g>
<!-- HVMC&#45;&gt;FUEL -->
<g id="edge10" class="edge">
<title>HVMC-&gt;FUEL</title>
<path fill="none" stroke="#000000" d="M237.4458,-95.191C280.3714,-79.0393 358.0603,-49.8072 404.5308,-32.3217"/>
<polygon fill="#000000" stroke="#000000" points="405.8227,-35.5752 413.9495,-28.7777 403.3575,-29.0236 405.8227,-35.5752"/>
<text text-anchor="middle" x="358.0382" y="-58.2" font-family="Times,serif" font-size="14.00" fill="#000000">81:1</text>
</g>
<!-- GNMV&#45;&gt;FUEL -->
<g id="edge12" class="edge">
<title>GNMV-&gt;FUEL</title>
<path fill="none" stroke="#000000" d="M530.4634,-90.9243C513.3167,-76.6941 488.0015,-55.6849 468.9418,-39.8671"/>
<polygon fill="#000000" stroke="#000000" points="471.1288,-37.1338 461.1984,-33.4408 466.6584,-42.5204 471.1288,-37.1338"/>
<text text-anchor="middle" x="518.0382" y="-58.2" font-family="Times,serif" font-size="14.00" fill="#000000">25:1</text>
</g>
<!-- ORE -->
<g id="node12" class="node">
<title>ORE</title>
<ellipse fill="none" stroke="#000000" cx="388.5929" cy="-373.2" rx="30.1958" ry="18"/>
<text text-anchor="middle" x="388.5929" y="-369" font-family="Times,serif" font-size="14.00" fill="#000000">ORE</text>
</g>
<!-- ORE&#45;&gt;MNCFX -->
<g id="edge26" class="edge">
<title>ORE-&gt;MNCFX</title>
<path fill="none" stroke="#000000" d="M363.2414,-363.0135C325.638,-347.9041 254.654,-319.382 209.3152,-301.1644"/>
<polygon fill="#000000" stroke="#000000" points="210.3564,-297.8109 199.7725,-297.3301 207.7465,-304.3062 210.3564,-297.8109"/>
<text text-anchor="middle" x="313.5382" y="-324.6" font-family="Times,serif" font-size="14.00" fill="#000000">145:6</text>
</g>
<!-- ORE&#45;&gt;NVRVD -->
<g id="edge15" class="edge">
<title>ORE-&gt;NVRVD</title>
<path fill="none" stroke="#000000" d="M401.007,-356.4974C410.6836,-343.478 424.292,-325.1684 435.3734,-310.2589"/>
<polygon fill="#000000" stroke="#000000" points="438.4009,-312.0529 441.5571,-301.9391 432.7827,-307.8772 438.4009,-312.0529"/>
<text text-anchor="middle" x="442.5382" y="-324.6" font-family="Times,serif" font-size="14.00" fill="#000000">139:4</text>
</g>
<!-- ORE&#45;&gt;JNWZP -->
<g id="edge16" class="edge">
<title>ORE-&gt;JNWZP</title>
<path fill="none" stroke="#000000" d="M380.6902,-355.656C375.0295,-343.0892 367.2978,-325.9248 360.8412,-311.5912"/>
<polygon fill="#000000" stroke="#000000" points="363.9144,-309.8917 356.6161,-302.2115 357.532,-312.7667 363.9144,-309.8917"/>
<text text-anchor="middle" x="387.5382" y="-324.6" font-family="Times,serif" font-size="14.00" fill="#000000">144:7</text>
</g>
<!-- ORE&#45;&gt;VJHF -->
<g id="edge30" class="edge">
<title>ORE-&gt;VJHF</title>
<path fill="none" stroke="#000000" d="M412.8425,-362.0232C427.4144,-355.154 446.2415,-346.0082 462.5929,-337.2 482.2109,-326.6321 503.7108,-313.9103 520.664,-303.6024"/>
<polygon fill="#000000" stroke="#000000" points="522.869,-306.3566 529.5738,-298.1531 519.2167,-300.3849 522.869,-306.3566"/>
<text text-anchor="middle" x="507.5382" y="-324.6" font-family="Times,serif" font-size="14.00" fill="#000000">176:6</text>
</g>
<!-- RFSQX&#45;&gt;HVMC -->
<g id="edge18" class="edge">
<title>RFSQX-&gt;HVMC</title>
<path fill="none" stroke="#000000" d="M96.6207,-177.6938C101.822,-166.412 109.8815,-152.2453 120.7023,-142.8 132.4796,-132.5199 147.6126,-124.8698 161.8866,-119.3295"/>
<polygon fill="#000000" stroke="#000000" points="163.3656,-122.5166 171.5795,-115.8246 160.9852,-115.9337 163.3656,-122.5166"/>
<text text-anchor="middle" x="130.5382" y="-147" font-family="Times,serif" font-size="14.00" fill="#000000">7:3</text>
</g>
</g>
</svg>