<?xml version="1.0" encoding="UTF-8" standalone="no"?>
<!DOCTYPE svg PUBLIC "-//W3C//DTD SVG 1.1//EN" "http://www.w3.org/Graphics/SVG/1.1/DTD/svg11.dtd">
<!-- Generated by graphviz version 2.40.1 (20161225.0304)
 -->
<!-- Title: %0 Pages: 1 -->
<svg width="470pt" height="310pt" viewBox="0.00 0.00 469.86 310.40" xmlns="http://www.w3.org/2000/svg" xmlns:xlink="http://www.w3.org/1999/xlink">
<g id="graph0" class="graph" transform="scale(1 1) rotate(0) translate(4 306.4)">
<title>%0</title>
<polygon fill="#ffffff" stroke="transparent" points="-4,4 -4,-306.4 465.8622,-306.4 465.8622,4 -4,4"/>
<!-- ORE -->
<g id="node1" class="node">
<title>ORE</title>
<ellipse fill="none" stroke="#000000" cx="214.2469" cy="-284.4" rx="30.1958" ry="18"/>
<text text-anchor="middle" x="214.2469" y="-280.2" font-family="Times,serif" font-size="14.00" fill="#000000">ORE</text>
</g>
<!-- NZVS -->
<g id="node2" class="node">
<title>NZVS</title>
<ellipse fill="none" stroke="#000000" cx="36.2469" cy="-195.6" rx="36.4955" ry="18"/>
<text text-anchor="middle" x="36.2469" y="-191.4" font-family="Times,serif" font-size="14.00" fill="#000000">NZVS</text>
</g>
<!-- ORE&#45;&gt;NZVS -->
<g id="edge1" class="edge">
<title>ORE-&gt;NZVS</title>
<path fill="none" stroke="#000000" d="M188.3765,-274.7202C170.8858,-267.9245 147.4111,-258.3113 127.3563,-248.4 106.9795,-238.3296 84.9057,-225.5871 67.5893,-215.1433"/>
<polygon fill="#000000" stroke="#000000" points="69.3639,-212.1261 59.0018,-209.9177 65.7251,-218.106 69.3639,-212.1261"/>
<text text-anchor="middle" x="144.1922" y="-235.8" font-family="Times,serif" font-size="14.00" fill="#000000">157:5</text>
</g>
<!-- DCFZ -->
<g id="node3" class="node">
<title>DCFZ</title>
<ellipse fill="none" stroke="#000000" cx="126.2469" cy="-195.6" rx="35.9329" ry="18"/>
<text text-anchor="middle" x="126.2469" y="-191.4" font-family="Times,serif" font-size="14.00" fill="#000000">DCFZ</text>
</g>
<!-- ORE&#45;&gt;DCFZ -->
<g id="edge2" class="edge">
<title>ORE-&gt;DCFZ</title>
<path fill="none" stroke="#000000" d="M198.5062,-268.6458C192.2301,-262.3554 184.9444,-255.0417 178.3563,-248.4 168.8612,-238.8276 158.4177,-228.2546 149.3894,-219.1"/>
<polygon fill="#000000" stroke="#000000" points="151.703,-216.4615 142.1902,-211.797 146.7179,-221.3756 151.703,-216.4615"/>
<text text-anchor="middle" x="195.1922" y="-235.8" font-family="Times,serif" font-size="14.00" fill="#000000">165:6</text>
</g>
<!-- GPVTF -->
<g id="node8" class="node">
<title>GPVTF</title>
<ellipse fill="none" stroke="#000000" cx="420.2469" cy="-195.6" rx="41.7308" ry="18"/>
<text text-anchor="middle" x="420.2469" y="-191.4" font-family="Times,serif" font-size="14.00" fill="#000000">GPVTF</text>
</g>
<!-- ORE&#45;&gt;GPVTF -->
<g id="edge16" class="edge">
<title>ORE-&gt;GPVTF</title>
<path fill="none" stroke="#000000" d="M240.3902,-274.9848C259.3681,-268.0057 285.582,-258.0665 308.2469,-248.4 333.7393,-237.5275 361.9605,-224.215 383.6968,-213.6775"/>
<polygon fill="#000000" stroke="#000000" points="385.4335,-216.7247 392.8906,-209.1986 382.3678,-210.4317 385.4335,-216.7247"/>
<text text-anchor="middle" x="361.1922" y="-235.8" font-family="Times,serif" font-size="14.00" fill="#000000">165:2</text>
</g>
<!-- HKGWZ -->
<g id="node9" class="node">
<title>HKGWZ</title>
<ellipse fill="none" stroke="#000000" cx="313.2469" cy="-195.6" rx="46.9304" ry="18"/>
<text text-anchor="middle" x="313.2469" y="-191.4" font-family="Times,serif" font-size="14.00" fill="#000000">HKGWZ</text>
</g>
<!-- ORE&#45;&gt;HKGWZ -->
<g id="edge13" class="edge">
<title>ORE-&gt;HKGWZ</title>
<path fill="none" stroke="#000000" d="M231.0409,-269.3363C246.3496,-255.6049 269.2124,-235.0977 286.9437,-219.1932"/>
<polygon fill="#000000" stroke="#000000" points="289.5767,-221.5332 294.6839,-212.2505 284.9027,-216.3222 289.5767,-221.5332"/>
<text text-anchor="middle" x="288.1922" y="-235.8" font-family="Times,serif" font-size="14.00" fill="#000000">177:5</text>
</g>
<!-- PSHF -->
<g id="node10" class="node">
<title>PSHF</title>
<ellipse fill="none" stroke="#000000" cx="214.2469" cy="-195.6" rx="34.2259" ry="18"/>
<text text-anchor="middle" x="214.2469" y="-191.4" font-family="Times,serif" font-size="14.00" fill="#000000">PSHF</text>
</g>
<!-- ORE&#45;&gt;PSHF -->
<g id="edge12" class="edge">
<title>ORE-&gt;PSHF</title>
<path fill="none" stroke="#000000" d="M214.2469,-266.0006C214.2469,-253.8949 214.2469,-237.8076 214.2469,-224.0674"/>
<polygon fill="#000000" stroke="#000000" points="217.747,-223.672 214.2469,-213.672 210.747,-223.6721 217.747,-223.672"/>
<text text-anchor="middle" x="230.1922" y="-235.8" font-family="Times,serif" font-size="14.00" fill="#000000">179:7</text>
</g>
<!-- FUEL -->
<g id="node5" class="node">
<title>FUEL</title>
<ellipse fill="none" stroke="#000000" cx="253.2469" cy="-18" rx="35.3509" ry="18"/>
<text text-anchor="middle" x="253.2469" y="-13.8" font-family="Times,serif" font-size="14.00" fill="#000000">FUEL</text>
</g>
<!-- NZVS&#45;&gt;FUEL -->
<g id="edge6" class="edge">
<title>NZVS-&gt;FUEL</title>
<path fill="none" stroke="#000000" d="M26.3643,-178.213C14.8606,-155.4017 -.2209,-115.1806 19.3563,-88.8 42.0616,-58.2043 148.0375,-35.6897 209.2623,-24.9774"/>
<polygon fill="#000000" stroke="#000000" points="210.1491,-28.3765 219.414,-23.2374 208.9665,-21.4771 210.1491,-28.3765"/>
<text text-anchor="middle" x="32.6922" y="-102.6" font-family="Times,serif" font-size="14.00" fill="#000000">29:1</text>
</g>
<!-- KHKGT -->
<g id="node6" class="node">
<title>KHKGT</title>
<ellipse fill="none" stroke="#000000" cx="98.2469" cy="-106.8" rx="44.6434" ry="18"/>
<text text-anchor="middle" x="98.2469" y="-102.6" font-family="Times,serif" font-size="14.00" fill="#000000">KHKGT</text>
</g>
<!-- NZVS&#45;&gt;KHKGT -->
<g id="edge18" class="edge">
<title>NZVS-&gt;KHKGT</title>
<path fill="none" stroke="#000000" d="M41.6133,-177.4788C45.301,-166.7913 50.8857,-153.3402 58.3563,-142.8 61.5929,-138.2335 65.5036,-133.83 69.5947,-129.7639"/>
<polygon fill="#000000" stroke="#000000" points="72.0983,-132.2154 77.0466,-122.8471 67.3362,-127.0849 72.0983,-132.2154"/>
<text text-anchor="middle" x="68.1922" y="-147" font-family="Times,serif" font-size="14.00" fill="#000000">7:8</text>
</g>
<!-- XJWVT -->
<g id="node4" class="node">
<title>XJWVT</title>
<ellipse fill="none" stroke="#000000" cx="205.2469" cy="-106.8" rx="44.0002" ry="18"/>
<text text-anchor="middle" x="205.2469" y="-102.6" font-family="Times,serif" font-size="14.00" fill="#000000">XJWVT</text>
</g>
<!-- DCFZ&#45;&gt;XJWVT -->
<g id="edge14" class="edge">
<title>DCFZ-&gt;XJWVT</title>
<path fill="none" stroke="#000000" d="M141.1062,-178.8974C153.0575,-165.4635 170.0196,-146.3973 183.4992,-131.2456"/>
<polygon fill="#000000" stroke="#000000" points="186.1538,-133.5273 190.1857,-123.7296 180.9239,-128.8746 186.1538,-133.5273"/>
<text text-anchor="middle" x="182.1922" y="-147" font-family="Times,serif" font-size="14.00" fill="#000000">7:2</text>
</g>
<!-- DCFZ&#45;&gt;KHKGT -->
<g id="edge17" class="edge">
<title>DCFZ-&gt;KHKGT</title>
<path fill="none" stroke="#000000" d="M102.3744,-182.0558C94.4965,-176.2474 86.6555,-168.6866 82.3563,-159.6 78.4893,-151.4268 79.639,-142.0971 82.6299,-133.5769"/>
<polygon fill="#000000" stroke="#000000" points="85.8398,-134.9721 86.6199,-124.4061 79.4209,-132.1795 85.8398,-134.9721"/>
<text text-anchor="middle" x="92.1922" y="-147" font-family="Times,serif" font-size="14.00" fill="#000000">3:8</text>
</g>
<!-- XJWVT&#45;&gt;FUEL -->
<g id="edge3" class="edge">
<title>XJWVT-&gt;FUEL</title>
<path fill="none" stroke="#000000" d="M213.5711,-89.0022C218.5216,-78.6696 225.0489,-65.4696 231.3563,-54 233.154,-50.7311 235.1041,-47.3359 237.0747,-43.9945"/>
<polygon fill="#000000" stroke="#000000" points="240.0902,-45.7715 242.248,-35.3987 234.0926,-42.1619 240.0902,-45.7715"/>
<text text-anchor="middle" x="244.6922" y="-58.2" font-family="Times,serif" font-size="14.00" fill="#000000">44:1</text>
</g>
<!-- KHKGT&#45;&gt;FUEL -->
<g id="edge4" class="edge">
<title>KHKGT-&gt;FUEL</title>
<path fill="none" stroke="#000000" d="M124.1904,-91.9369C150.7861,-76.7002 192.2066,-52.9702 220.919,-36.5208"/>
<polygon fill="#000000" stroke="#000000" points="222.8227,-39.4639 229.7597,-31.4559 219.3429,-33.3901 222.8227,-39.4639"/>
<text text-anchor="middle" x="199.1922" y="-58.2" font-family="Times,serif" font-size="14.00" fill="#000000">5:1</text>
</g>
<!-- QDVJ -->
<g id="node7" class="node">
<title>QDVJ</title>
<ellipse fill="none" stroke="#000000" cx="302.2469" cy="-106.8" rx="35.9135" ry="18"/>
<text text-anchor="middle" x="302.2469" y="-102.6" font-family="Times,serif" font-size="14.00" fill="#000000">QDVJ</text>
</g>
<!-- QDVJ&#45;&gt;FUEL -->
<g id="edge5" class="edge">
<title>QDVJ-&gt;FUEL</title>
<path fill="none" stroke="#000000" d="M292.5661,-89.256C285.5193,-76.4855 275.8526,-58.967 267.8676,-44.4963"/>
<polygon fill="#000000" stroke="#000000" points="270.8034,-42.5721 262.9076,-35.5076 264.6746,-45.954 270.8034,-42.5721"/>
<text text-anchor="middle" x="290.1922" y="-58.2" font-family="Times,serif" font-size="14.00" fill="#000000">1:1</text>
</g>
<!-- GPVTF&#45;&gt;FUEL -->
<g id="edge7" class="edge">
<title>GPVTF-&gt;FUEL</title>
<path fill="none" stroke="#000000" d="M417.1729,-177.5731C412.6734,-155.141 402.636,-116.4263 383.2469,-88.8 362.0906,-58.6556 323.8853,-40.0745 294.347,-29.5565"/>
<polygon fill="#000000" stroke="#000000" points="295.2934,-26.1819 284.6991,-26.2936 293.0507,-32.813 295.2934,-26.1819"/>
<text text-anchor="middle" x="410.1922" y="-102.6" font-family="Times,serif" font-size="14.00" fill="#000000">9:1</text>
</g>
<!-- GPVTF&#45;&gt;QDVJ -->
<g id="edge10" class="edge">
<title>GPVTF-&gt;QDVJ</title>
<path fill="none" stroke="#000000" d="M399.4225,-179.9288C380.2642,-165.5113 351.6944,-144.0113 330.4863,-128.0513"/>
<polygon fill="#000000" stroke="#000000" points="332.5638,-125.2344 322.469,-122.0179 328.3547,-130.8276 332.5638,-125.2344"/>
<text text-anchor="middle" x="380.1922" y="-147" font-family="Times,serif" font-size="14.00" fill="#000000">1:9</text>
</g>
<!-- HKGWZ&#45;&gt;FUEL -->
<g id="edge8" class="edge">
<title>HKGWZ-&gt;FUEL</title>
<path fill="none" stroke="#000000" d="M330.0758,-178.5422C334.7271,-172.924 339.301,-166.3704 342.2469,-159.6 354.8329,-130.6746 360.991,-117.1935 347.2469,-88.8 335.4607,-64.4512 310.7207,-46.3498 289.5795,-34.5469"/>
<polygon fill="#000000" stroke="#000000" points="290.958,-31.3162 280.484,-29.7209 287.6771,-37.4997 290.958,-31.3162"/>
<text text-anchor="middle" x="366.6922" y="-102.6" font-family="Times,serif" font-size="14.00" fill="#000000">48:1</text>
</g>
<!-- HKGWZ&#45;&gt;KHKGT -->
<g id="edge19" class="edge">
<title>HKGWZ-&gt;KHKGT</title>
<path fill="none" stroke="#000000" d="M301.3272,-177.9287C291.789,-164.3394 278.8002,-147.1698 271.2469,-142.8 224.9463,-116.014 204.2555,-137.3036 152.2469,-124.8 148.6738,-123.941 144.9993,-122.9517 141.3283,-121.8881"/>
<polygon fill="#000000" stroke="#000000" points="142.2775,-118.5184 131.6909,-118.9377 140.2283,-125.2118 142.2775,-118.5184"/>
<text text-anchor="middle" x="295.1922" y="-147" font-family="Times,serif" font-size="14.00" fill="#000000">5:8</text>
</g>
<!-- HKGWZ&#45;&gt;QDVJ -->
<g id="edge9" class="edge">
<title>HKGWZ-&gt;QDVJ</title>
<path fill="none" stroke="#000000" d="M314.026,-177.4245C314.1838,-167.2003 313.9155,-154.2309 312.2469,-142.8 311.8479,-140.0661 311.3048,-137.2453 310.6766,-134.4423"/>
<polygon fill="#000000" stroke="#000000" points="314.0144,-133.3681 308.1342,-124.5548 307.2349,-135.1114 314.0144,-133.3681"/>
<text text-anchor="middle" x="325.6922" y="-147" font-family="Times,serif" font-size="14.00" fill="#000000">12:9</text>
</g>
<!-- PSHF&#45;&gt;XJWVT -->
<g id="edge15" class="edge">
<title>PSHF-&gt;XJWVT</title>
<path fill="none" stroke="#000000" d="M212.3821,-177.2006C211.143,-164.975 209.4924,-148.6887 208.0908,-134.8599"/>
<polygon fill="#000000" stroke="#000000" points="211.5691,-134.4681 207.0786,-124.872 204.6048,-135.174 211.5691,-134.4681"/>
<text text-anchor="middle" x="220.1922" y="-147" font-family="Times,serif" font-size="14.00" fill="#000000">7:2</text>
</g>
<!-- PSHF&#45;&gt;KHKGT -->
<g id="edge20" class="edge">
<title>PSHF-&gt;KHKGT</title>
<path fill="none" stroke="#000000" d="M187.2976,-184.2633C163.2168,-174.0986 131.5382,-160.626 130.3563,-159.6 122.1532,-152.4791 115.4161,-142.7316 110.2686,-133.5491"/>
<polygon fill="#000000" stroke="#000000" points="113.3728,-131.9323 105.6555,-124.6732 107.1616,-135.1604 113.3728,-131.9323"/>
<text text-anchor="middle" x="143.6922" y="-147" font-family="Times,serif" font-size="14.00" fill="#000000">10:8</text>
</g>
<!-- PSHF&#45;&gt;QDVJ -->
<g id="edge11" class="edge">
<title>PSHF-&gt;QDVJ</title>
<path fill="none" stroke="#000000" d="M225.0529,-178.4089C232.3242,-167.5541 242.5322,-153.5935 253.3563,-142.8 258.7957,-137.376 265.1001,-132.1228 271.3363,-127.3826"/>
<polygon fill="#000000" stroke="#000000" points="273.6975,-129.9924 279.7103,-121.269 269.5699,-124.3388 273.6975,-129.9924"/>
<text text-anchor="middle" x="262.1922" y="-147" font-family="Times,serif" font-size="14.00" fill="#000000">8:9</text>
</g>
</g>
</svg>