<?xml version="1.0" encoding="UTF-8" standalone="no"?>
<!DOCTYPE svg PUBLIC "-//W3C//DTD SVG 1.1//EN" "http://www.w3.org/Graphics/SVG/1.1/DTD/svg11.dtd">
<!-- Generated by graphviz version 2.40.1 (20161225.0304)
 -->
<!-- Title: %0 Pages: 1 -->
<svg width="211pt" height="310pt" viewBox="0.00 0.00 210.64 310.40" xmlns="http://www.w3.org/2000/svg" xmlns:xlink="http://www.w3.org/1999/xlink">
<g id="graph0" class="graph" transform="scale(1 1) rotate(0) translate(4 306.4)">
<title>%0</title>
<polygon fill="#ffffff" stroke="transparent" points="-4,4 -4,-306.4 206.6389,-306.4 206.6389,4 -4,4"/>
<!-- ORE -->
<g id="node1" class="node">
<title>ORE</title>
<ellipse fill="none" stroke="#000000" cx="102.7483" cy="-284.4" rx="30.1958" ry="18"/>
<text text-anchor="middle" x="102.7483" y="-280.2" font-family="Times,serif" font-size="14.00" fill="#000000">ORE</text>
</g>
<!-- A -->
<g id="node2" class="node">
<title>A</title>
<ellipse fill="none" stroke="#000000" cx="102.7483" cy="-195.6" rx="27" ry="18"/>
<text text-anchor="middle" x="102.7483" y="-191.4" font-family="Times,serif" font-size="14.00" fill="#000000">A</text>
</g>
<!-- ORE&#45;&gt;A -->
<g id="edge1" class="edge">
<title>ORE-&gt;A</title>
<path fill="none" stroke="#000000" d="M102.7483,-266.0006C102.7483,-253.8949 102.7483,-237.8076 102.7483,-224.0674"/>
<polygon fill="#000000" stroke="#000000" points="106.2484,-223.672 102.7483,-213.672 99.2484,-223.6721 106.2484,-223.672"/>
<text text-anchor="middle" x="111.6936" y="-235.8" font-family="Times,serif" font-size="14.00" fill="#000000">9:2</text>
</g>
<!-- B -->
<g id="node3" class="node">
<title>B</title>
<ellipse fill="none" stroke="#000000" cx="30.7483" cy="-195.6" rx="27" ry="18"/>
<text text-anchor="middle" x="30.7483" y="-191.4" font-family="Times,serif" font-size="14.00" fill="#000000">B</text>
</g>
<!-- ORE&#45;&gt;B -->
<g id="edge2" class="edge">
<title>ORE-&gt;B</title>
<path fill="none" stroke="#000000" d="M89.5424,-268.1127C78.5126,-254.5093 62.6334,-234.9249 50.157,-219.5374"/>
<polygon fill="#000000" stroke="#000000" points="52.6449,-217.0485 43.6282,-211.4853 47.2076,-221.4572 52.6449,-217.0485"/>
<text text-anchor="middle" x="82.6936" y="-235.8" font-family="Times,serif" font-size="14.00" fill="#000000">8:3</text>
</g>
<!-- C -->
<g id="node4" class="node">
<title>C</title>
<ellipse fill="none" stroke="#000000" cx="174.7483" cy="-195.6" rx="27" ry="18"/>
<text text-anchor="middle" x="174.7483" y="-191.4" font-family="Times,serif" font-size="14.00" fill="#000000">C</text>
</g>
<!-- ORE&#45;&gt;C -->
<g id="edge3" class="edge">
<title>ORE-&gt;C</title>
<path fill="none" stroke="#000000" d="M115.9542,-268.1127C126.984,-254.5093 142.8632,-234.9249 155.3395,-219.5374"/>
<polygon fill="#000000" stroke="#000000" points="158.2889,-221.4572 161.8683,-211.4853 152.8516,-217.0485 158.2889,-221.4572"/>
<text text-anchor="middle" x="154.6936" y="-235.8" font-family="Times,serif" font-size="14.00" fill="#000000">7:5</text>
</g>
<!-- AB -->
<g id="node5" class="node">
<title>AB</title>
<ellipse fill="none" stroke="#000000" cx="30.7483" cy="-106.8" rx="27" ry="18"/>
<text text-anchor="middle" x="30.7483" y="-102.6" font-family="Times,serif" font-size="14.00" fill="#000000">AB</text>
</g>
<!-- A&#45;&gt;AB -->
<g id="edge4" class="edge">
<title>A-&gt;AB</title>
<path fill="none" stroke="#000000" d="M89.9759,-179.3476C81.7013,-168.8672 70.6584,-154.9713 60.7483,-142.8 57.4302,-138.7248 53.8766,-134.4142 50.4176,-130.2464"/>
<polygon fill="#000000" stroke="#000000" points="53.0594,-127.9494 43.9692,-122.5071 47.6815,-132.4303 53.0594,-127.9494"/>
<text text-anchor="middle" x="82.6936" y="-147" font-family="Times,serif" font-size="14.00" fill="#000000">3:1</text>
</g>
<!-- CA -->
<g id="node7" class="node">
<title>CA</title>
<ellipse fill="none" stroke="#000000" cx="174.7483" cy="-106.8" rx="27" ry="18"/>
<text text-anchor="middle" x="174.7483" y="-102.6" font-family="Times,serif" font-size="14.00" fill="#000000">CA</text>
</g>
<!-- A&#45;&gt;CA -->
<g id="edge9" class="edge">
<title>A-&gt;CA</title>
<path fill="none" stroke="#000000" d="M105.8859,-177.5712C108.483,-166.6569 113.0539,-152.9358 120.8577,-142.8 127.022,-134.7937 135.4932,-127.9744 143.8942,-122.4946"/>
<polygon fill="#000000" stroke="#000000" points="145.7785,-125.4454 152.5239,-117.2754 142.1559,-119.4557 145.7785,-125.4454"/>
<text text-anchor="middle" x="130.6936" y="-147" font-family="Times,serif" font-size="14.00" fill="#000000">1:1</text>
</g>
<!-- B&#45;&gt;AB -->
<g id="edge5" class="edge">
<title>B-&gt;AB</title>
<path fill="none" stroke="#000000" d="M14.906,-180.5625C9.7065,-174.5926 4.5693,-167.3112 1.8577,-159.6 -.6192,-152.5561 -.6192,-149.8439 1.8577,-142.8 3.4253,-138.342 5.8037,-134.0276 8.5361,-130.0272"/>
<polygon fill="#000000" stroke="#000000" points="11.5292,-131.8798 14.906,-121.8375 6.0038,-127.5821 11.5292,-131.8798"/>
<text text-anchor="middle" x="11.6936" y="-147" font-family="Times,serif" font-size="14.00" fill="#000000">4:1</text>
</g>
<!-- BC -->
<g id="node6" class="node">
<title>BC</title>
<ellipse fill="none" stroke="#000000" cx="102.7483" cy="-106.8" rx="27" ry="18"/>
<text text-anchor="middle" x="102.7483" y="-102.6" font-family="Times,serif" font-size="14.00" fill="#000000">BC</text>
</g>
<!-- B&#45;&gt;BC -->
<g id="edge6" class="edge">
<title>B-&gt;BC</title>
<path fill="none" stroke="#000000" d="M29.712,-177.524C29.9562,-166.592 31.8946,-152.8687 38.8577,-142.8 41.1366,-139.5047 56.6211,-130.7463 71.7739,-122.694"/>
<polygon fill="#000000" stroke="#000000" points="73.8178,-125.574 81.0448,-117.8266 70.5639,-119.3763 73.8178,-125.574"/>
<text text-anchor="middle" x="48.6936" y="-147" font-family="Times,serif" font-size="14.00" fill="#000000">5:1</text>
</g>
<!-- C&#45;&gt;BC -->
<g id="edge7" class="edge">
<title>C-&gt;BC</title>
<path fill="none" stroke="#000000" d="M165.8481,-178.1087C159.9959,-167.3966 151.77,-153.6994 142.7483,-142.8 138.4479,-137.6046 133.3922,-132.4767 128.3491,-127.7913"/>
<polygon fill="#000000" stroke="#000000" points="130.3422,-124.8798 120.545,-120.8468 125.6889,-130.1092 130.3422,-124.8798"/>
<text text-anchor="middle" x="163.6936" y="-147" font-family="Times,serif" font-size="14.00" fill="#000000">7:1</text>
</g>
<!-- C&#45;&gt;CA -->
<g id="edge8" class="edge">
<title>C-&gt;CA</title>
<path fill="none" stroke="#000000" d="M180.1102,-177.8175C181.5984,-172.0607 183.0084,-165.6104 183.7483,-159.6 184.6606,-152.1893 184.6606,-150.2107 183.7483,-142.8 183.413,-140.0765 182.9402,-137.2627 182.3848,-134.4641"/>
<polygon fill="#000000" stroke="#000000" points="185.7643,-133.5425 180.1102,-124.5825 178.9427,-135.1128 185.7643,-133.5425"/>
<text text-anchor="middle" x="193.6936" y="-147" font-family="Times,serif" font-size="14.00" fill="#000000">4:1</text>
</g>
<!-- FUEL -->
<g id="node8" class="node">
<title>FUEL</title>
<ellipse fill="none" stroke="#000000" cx="102.7483" cy="-18" rx="35.3509" ry="18"/>
<text text-anchor="middle" x="102.7483" y="-13.8" font-family="Times,serif" font-size="14.00" fill="#000000">FUEL</text>
</g>
<!-- AB&#45;&gt;FUEL -->
<g id="edge10" class="edge">
<title>AB-&gt;FUEL</title>
<path fill="none" stroke="#000000" d="M43.6204,-90.9243C54.4733,-77.5391 70.1894,-58.1559 82.6911,-42.7372"/>
<polygon fill="#000000" stroke="#000000" points="85.6751,-44.6142 89.2545,-34.6423 80.2378,-40.2056 85.6751,-44.6142"/>
<text text-anchor="middle" x="82.6936" y="-58.2" font-family="Times,serif" font-size="14.00" fill="#000000">2:1</text>
</g>
<!-- BC&#45;&gt;FUEL -->
<g id="edge11" class="edge">
<title>BC-&gt;FUEL</title>
<path fill="none" stroke="#000000" d="M102.7483,-88.4006C102.7483,-76.2949 102.7483,-60.2076 102.7483,-46.4674"/>
<polygon fill="#000000" stroke="#000000" points="106.2484,-46.072 102.7483,-36.072 99.2484,-46.0721 106.2484,-46.072"/>
<text text-anchor="middle" x="111.6936" y="-58.2" font-family="Times,serif" font-size="14.00" fill="#000000">3:1</text>
</g>
<!-- CA&#45;&gt;FUEL -->
<g id="edge12" class="edge">
<title>CA-&gt;FUEL</title>
<path fill="none" stroke="#000000" d="M161.8761,-90.9243C151.0232,-77.5391 135.3072,-58.1559 122.8055,-42.7372"/>
<polygon fill="#000000" stroke="#000000" points="125.2588,-40.2056 116.2421,-34.6423 119.8215,-44.6142 125.2588,-40.2056"/>
<text text-anchor="middle" x="154.6936" y="-58.2" font-family="Times,serif" font-size="14.00" fill="#000000">4:1</text>
</g>
</g>
</svg>