<?xml version="1.0" encoding="UTF-8" standalone="no"?>
<!DOCTYPE svg PUBLIC "-//W3C//DTD SVG 1.1//EN" "http://www.w3.org/Graphics/SVG/1.1/DTD/svg11.dtd">
<!-- Generated by graphviz version 2.40.1 (20161225.0304)
 -->
<!-- Title: %0 Pages: 1 -->
<svg width="981pt" height="488pt" viewBox="0.00 0.00 980.89 488.00" xmlns="http://www.w3.org/2000/svg" xmlns:xlink="http://www.w3.org/1999/xlink">
<g id="graph0" class="graph" transform="scale(1 1) rotate(0) translate(4 484)">
<title>%0</title>
<polygon fill="#ffffff" stroke="transparent" points="-4,4 -4,-484 976.8906,-484 976.8906,4 -4,4"/>
<!-- ORE -->
<g id="node1" class="node">
<title>ORE</title>
<ellipse fill="none" stroke="#000000" cx="227" cy="-462" rx="30.1958" ry="18"/>
<text text-anchor="middle" x="227" y="-457.8" font-family="Times,serif" font-size="14.00" fill="#000000">ORE</text>
</g>
<!-- CNZTR -->
<g id="node2" class="node">
<title>CNZTR</title>
<ellipse fill="none" stroke="#000000" cx="188" cy="-373.2" rx="42.8751" ry="18"/>
<text text-anchor="middle" x="188" y="-369" font-family="Times,serif" font-size="14.00" fill="#000000">CNZTR</text>
</g>
<!-- ORE&#45;&gt;CNZTR -->
<g id="edge1" class="edge">
<title>ORE-&gt;CNZTR</title>
<path fill="none" stroke="#000000" d="M219.2949,-444.456C213.7757,-431.8892 206.2372,-414.7248 199.9421,-400.3912"/>
<polygon fill="#000000" stroke="#000000" points="203.0484,-398.76 195.8226,-391.0115 196.6393,-401.5748 203.0484,-398.76"/>
<text text-anchor="middle" x="226.9453" y="-413.4" font-family="Times,serif" font-size="14.00" fill="#000000">171:8</text>
</g>
<!-- BHXH -->
<g id="node11" class="node">
<title>BHXH</title>
<ellipse fill="none" stroke="#000000" cx="89" cy="-373.2" rx="38.2818" ry="18"/>
<text text-anchor="middle" x="89" y="-369" font-family="Times,serif" font-size="14.00" fill="#000000">BHXH</text>
</g>
<!-- ORE&#45;&gt;BHXH -->
<g id="edge9" class="edge">
<title>ORE-&gt;BHXH</title>
<path fill="none" stroke="#000000" d="M205.7441,-448.9675C194.7621,-442.1873 181.1695,-433.7224 169.1094,-426 152.6926,-415.488 134.5438,-403.5525 119.6775,-393.692"/>
<polygon fill="#000000" stroke="#000000" points="121.6075,-390.7722 111.3417,-388.1525 117.7332,-396.6023 121.6075,-390.7722"/>
<text text-anchor="middle" x="185.9453" y="-413.4" font-family="Times,serif" font-size="14.00" fill="#000000">114:4</text>
</g>
<!-- VRPVC -->
<g id="node12" class="node">
<title>VRPVC</title>
<ellipse fill="none" stroke="#000000" cx="292" cy="-373.2" rx="43.4571" ry="18"/>
<text text-anchor="middle" x="292" y="-369" font-family="Times,serif" font-size="14.00" fill="#000000">VRPVC</text>
</g>
<!-- ORE&#45;&gt;VRPVC -->
<g id="edge44" class="edge">
<title>ORE-&gt;VRPVC</title>
<path fill="none" stroke="#000000" d="M239.226,-445.2974C248.8174,-432.194 262.3313,-413.732 273.2826,-398.7708"/>
<polygon fill="#000000" stroke="#000000" points="276.3031,-400.57 279.3855,-390.4334 270.6546,-396.4354 276.3031,-400.57"/>
<text text-anchor="middle" x="281.9453" y="-413.4" font-family="Times,serif" font-size="14.00" fill="#000000">121:7</text>
</g>
<!-- KTJDG -->
<g id="node14" class="node">
<title>KTJDG</title>
<ellipse fill="none" stroke="#000000" cx="693" cy="-373.2" rx="41.7114" ry="18"/>
<text text-anchor="middle" x="693" y="-369" font-family="Times,serif" font-size="14.00" fill="#000000">KTJDG</text>
</g>
<!-- ORE&#45;&gt;KTJDG -->
<g id="edge34" class="edge">
<title>ORE-&gt;KTJDG</title>
<path fill="none" stroke="#000000" d="M256.1504,-456.4452C334.1079,-441.5897 548.0098,-400.829 644.5714,-382.4285"/>
<polygon fill="#000000" stroke="#000000" points="645.4791,-385.8186 654.6471,-380.5084 644.1687,-378.9423 645.4791,-385.8186"/>
<text text-anchor="middle" x="516.9453" y="-413.4" font-family="Times,serif" font-size="14.00" fill="#000000">189:9</text>
</g>
<!-- XDBXC -->
<g id="node17" class="node">
<title>XDBXC</title>
<ellipse fill="none" stroke="#000000" cx="166" cy="-284.4" rx="44.6626" ry="18"/>
<text text-anchor="middle" x="166" y="-280.2" font-family="Times,serif" font-size="14.00" fill="#000000">XDBXC</text>
</g>
<!-- CNZTR&#45;&gt;XDBXC -->
<g id="edge39" class="edge">
<title>CNZTR-&gt;XDBXC</title>
<path fill="none" stroke="#000000" d="M155.9689,-361.0665C139.0579,-353.9413 120.8403,-344.86 116.1094,-337.2 108.6618,-325.1413 117.3679,-313.4946 129.4801,-304.222"/>
<polygon fill="#000000" stroke="#000000" points="131.5481,-307.0476 137.796,-298.491 127.5758,-301.2838 131.5481,-307.0476"/>
<text text-anchor="middle" x="129.4453" y="-324.6" font-family="Times,serif" font-size="14.00" fill="#000000">27:2</text>
</g>
<!-- ZLQW -->
<g id="node3" class="node">
<title>ZLQW</title>
<ellipse fill="none" stroke="#000000" cx="143" cy="-195.6" rx="38.844" ry="18"/>
<text text-anchor="middle" x="143" y="-191.4" font-family="Times,serif" font-size="14.00" fill="#000000">ZLQW</text>
</g>
<!-- PLWSL -->
<g id="node4" class="node">
<title>PLWSL</title>
<ellipse fill="none" stroke="#000000" cx="442" cy="-106.8" rx="42.8751" ry="18"/>
<text text-anchor="middle" x="442" y="-102.6" font-family="Times,serif" font-size="14.00" fill="#000000">PLWSL</text>
</g>
<!-- ZLQW&#45;&gt;PLWSL -->
<g id="edge2" class="edge">
<title>ZLQW-&gt;PLWSL</title>
<path fill="none" stroke="#000000" d="M173.9315,-184.4651C181.1289,-182.0501 188.7946,-179.6177 196,-177.6 231.5121,-167.6556 243.0931,-174.1025 277,-159.6 289.3454,-154.3197 289.8534,-148.2846 302.1094,-142.8 330.7287,-129.9929 364.7604,-121.1086 392.0916,-115.3703"/>
<polygon fill="#000000" stroke="#000000" points="393.1053,-118.7362 402.2131,-113.3234 391.7178,-111.8751 393.1053,-118.7362"/>
<text text-anchor="middle" x="311.9453" y="-147" font-family="Times,serif" font-size="14.00" fill="#000000">7:4</text>
</g>
<!-- FHTLT -->
<g id="node15" class="node">
<title>FHTLT</title>
<ellipse fill="none" stroke="#000000" cx="666" cy="-106.8" rx="41.149" ry="18"/>
<text text-anchor="middle" x="666" y="-102.6" font-family="Times,serif" font-size="14.00" fill="#000000">FHTLT</text>
</g>
<!-- ZLQW&#45;&gt;FHTLT -->
<g id="edge19" class="edge">
<title>ZLQW-&gt;FHTLT</title>
<path fill="none" stroke="#000000" d="M172.8813,-183.8501C180.326,-181.3702 188.365,-179.0636 196,-177.6 272.488,-162.9381 473.8579,-188.9411 546,-159.6 556.4753,-155.3396 555.3635,-148.5359 565.1094,-142.8 582.2839,-132.692 602.7575,-124.7384 620.7593,-118.9068"/>
<polygon fill="#000000" stroke="#000000" points="621.9609,-122.1985 630.4693,-115.8851 619.8809,-115.5146 621.9609,-122.1985"/>
<text text-anchor="middle" x="573.9453" y="-147" font-family="Times,serif" font-size="14.00" fill="#000000">8:6</text>
</g>
<!-- ZDVW -->
<g id="node16" class="node">
<title>ZDVW</title>
<ellipse fill="none" stroke="#000000" cx="251" cy="-106.8" rx="39.9876" ry="18"/>
<text text-anchor="middle" x="251" y="-102.6" font-family="Times,serif" font-size="14.00" fill="#000000">ZDVW</text>
</g>
<!-- ZLQW&#45;&gt;ZDVW -->
<g id="edge32" class="edge">
<title>ZLQW-&gt;ZDVW</title>
<path fill="none" stroke="#000000" d="M154.751,-177.9846C162.7021,-166.9605 173.9432,-152.9707 186.1094,-142.8 194.4238,-135.8493 204.2803,-129.5795 213.7678,-124.2937"/>
<polygon fill="#000000" stroke="#000000" points="215.5113,-127.3306 222.6886,-119.5372 212.2178,-121.1537 215.5113,-127.3306"/>
<text text-anchor="middle" x="195.9453" y="-147" font-family="Times,serif" font-size="14.00" fill="#000000">1:1</text>
</g>
<!-- FUEL -->
<g id="node13" class="node">
<title>FUEL</title>
<ellipse fill="none" stroke="#000000" cx="585" cy="-18" rx="35.3509" ry="18"/>
<text text-anchor="middle" x="585" y="-13.8" font-family="Times,serif" font-size="14.00" fill="#000000">FUEL</text>
</g>
<!-- PLWSL&#45;&gt;FUEL -->
<g id="edge14" class="edge">
<title>PLWSL-&gt;FUEL</title>
<path fill="none" stroke="#000000" d="M466.258,-91.7363C490.3508,-76.7752 527.397,-53.7703 553.696,-37.4391"/>
<polygon fill="#000000" stroke="#000000" points="555.8623,-40.2139 562.5112,-31.965 552.1695,-34.2671 555.8623,-40.2139"/>
<text text-anchor="middle" x="534.9453" y="-58.2" font-family="Times,serif" font-size="14.00" fill="#000000">7:1</text>
</g>
<!-- BMBT -->
<g id="node5" class="node">
<title>BMBT</title>
<ellipse fill="none" stroke="#000000" cx="735" cy="-284.4" rx="38.3011" ry="18"/>
<text text-anchor="middle" x="735" y="-280.2" font-family="Times,serif" font-size="14.00" fill="#000000">BMBT</text>
</g>
<!-- BMBT&#45;&gt;PLWSL -->
<g id="edge3" class="edge">
<title>BMBT-&gt;PLWSL</title>
<path fill="none" stroke="#000000" d="M731.7204,-266.2197C725.1461,-235.4408 707.2874,-173.4352 666,-142.8 639.5918,-123.2051 552.3381,-113.8563 494.8458,-109.7238"/>
<polygon fill="#000000" stroke="#000000" points="495.0482,-106.2296 484.8315,-109.0348 494.5676,-113.2131 495.0482,-106.2296"/>
<text text-anchor="middle" x="723.9453" y="-191.4" font-family="Times,serif" font-size="14.00" fill="#000000">3:4</text>
</g>
<!-- WPTQ -->
<g id="node8" class="node">
<title>WPTQ</title>
<ellipse fill="none" stroke="#000000" cx="782" cy="-195.6" rx="38.2818" ry="18"/>
<text text-anchor="middle" x="782" y="-191.4" font-family="Times,serif" font-size="14.00" fill="#000000">WPTQ</text>
</g>
<!-- BMBT&#45;&gt;WPTQ -->
<g id="edge33" class="edge">
<title>BMBT-&gt;WPTQ</title>
<path fill="none" stroke="#000000" d="M744.2857,-266.856C751.0449,-254.0855 760.317,-236.567 767.9761,-222.0963"/>
<polygon fill="#000000" stroke="#000000" points="771.149,-223.5833 772.7336,-213.1076 764.9622,-220.3086 771.149,-223.5833"/>
<text text-anchor="middle" x="770.9453" y="-235.8" font-family="Times,serif" font-size="14.00" fill="#000000">5:4</text>
</g>
<!-- BMBT&#45;&gt;FHTLT -->
<g id="edge18" class="edge">
<title>BMBT-&gt;FHTLT</title>
<path fill="none" stroke="#000000" d="M763.508,-271.9558C785.9445,-260.4284 815.5875,-240.9276 829,-213.6 836.0496,-199.2367 835.248,-192.3297 829,-177.6 820.31,-157.1134 812.2861,-153.9024 793,-142.8 768.9975,-128.9826 739.3549,-120.1881 714.7461,-114.7535"/>
<polygon fill="#000000" stroke="#000000" points="715.3935,-111.3133 704.889,-112.6942 713.9619,-118.1653 715.3935,-111.3133"/>
<text text-anchor="middle" x="841.9453" y="-191.4" font-family="Times,serif" font-size="14.00" fill="#000000">2:6</text>
</g>
<!-- XCVML -->
<g id="node6" class="node">
<title>XCVML</title>
<ellipse fill="none" stroke="#000000" cx="434" cy="-284.4" rx="45.806" ry="18"/>
<text text-anchor="middle" x="434" y="-280.2" font-family="Times,serif" font-size="14.00" fill="#000000">XCVML</text>
</g>
<!-- XCVML&#45;&gt;PLWSL -->
<g id="edge4" class="edge">
<title>XCVML-&gt;PLWSL</title>
<path fill="none" stroke="#000000" d="M427.6608,-266.1194C419.1457,-238.7504 406.4513,-185.7491 419,-142.8 419.9867,-139.4229 421.3975,-136.0613 423.0413,-132.8253"/>
<polygon fill="#000000" stroke="#000000" points="426.1002,-134.5279 428.1324,-124.1298 420.0594,-130.9911 426.1002,-134.5279"/>
<text text-anchor="middle" x="423.9453" y="-191.4" font-family="Times,serif" font-size="14.00" fill="#000000">9:4</text>
</g>
<!-- XMNCP -->
<g id="node7" class="node">
<title>XMNCP</title>
<ellipse fill="none" stroke="#000000" cx="299" cy="-195.6" rx="45.2439" ry="18"/>
<text text-anchor="middle" x="299" y="-191.4" font-family="Times,serif" font-size="14.00" fill="#000000">XMNCP</text>
</g>
<!-- XCVML&#45;&gt;XMNCP -->
<g id="edge37" class="edge">
<title>XCVML-&gt;XMNCP</title>
<path fill="none" stroke="#000000" d="M410.4848,-268.9322C388.5511,-254.5047 355.6427,-232.8583 331.26,-216.8199"/>
<polygon fill="#000000" stroke="#000000" points="332.9768,-213.7599 322.6987,-211.1885 329.1299,-219.6081 332.9768,-213.7599"/>
<text text-anchor="middle" x="386.9453" y="-235.8" font-family="Times,serif" font-size="14.00" fill="#000000">3:2</text>
</g>
<!-- RJRHP -->
<g id="node10" class="node">
<title>RJRHP</title>
<ellipse fill="none" stroke="#000000" cx="510" cy="-195.6" rx="40.0243" ry="18"/>
<text text-anchor="middle" x="510" y="-191.4" font-family="Times,serif" font-size="14.00" fill="#000000">RJRHP</text>
</g>
<!-- XCVML&#45;&gt;RJRHP -->
<g id="edge45" class="edge">
<title>XCVML-&gt;RJRHP</title>
<path fill="none" stroke="#000000" d="M448.6536,-267.2785C460.0086,-254.011 475.9047,-235.4377 488.6702,-220.5222"/>
<polygon fill="#000000" stroke="#000000" points="491.5482,-222.5422 495.3914,-212.669 486.23,-217.9906 491.5482,-222.5422"/>
<text text-anchor="middle" x="486.9453" y="-235.8" font-family="Times,serif" font-size="14.00" fill="#000000">7:6</text>
</g>
<!-- XMNCP&#45;&gt;PLWSL -->
<g id="edge5" class="edge">
<title>XMNCP-&gt;PLWSL</title>
<path fill="none" stroke="#000000" d="M309.5295,-177.7805C317.0595,-166.3895 328.1328,-152.0671 341.1094,-142.8 356.816,-131.5833 376.3688,-123.5445 394.068,-117.9505"/>
<polygon fill="#000000" stroke="#000000" points="395.089,-121.2984 403.6739,-115.0896 393.0909,-114.5896 395.089,-121.2984"/>
<text text-anchor="middle" x="353.4453" y="-147" font-family="Times,serif" font-size="14.00" fill="#000000">26:4</text>
</g>
<!-- XMNCP&#45;&gt;FHTLT -->
<g id="edge21" class="edge">
<title>XMNCP-&gt;FHTLT</title>
<path fill="none" stroke="#000000" d="M333.3147,-183.7576C341.3324,-181.3755 349.8981,-179.1353 358,-177.6 408.1533,-168.096 539.9798,-179.4692 587,-159.6 597.4167,-155.1982 596.9798,-149.4733 606.1094,-142.8 614.1053,-136.9554 623.0923,-131.1772 631.6251,-126.0176"/>
<polygon fill="#000000" stroke="#000000" points="633.4692,-128.9933 640.2921,-120.8878 629.9038,-122.9693 633.4692,-128.9933"/>
<text text-anchor="middle" x="614.9453" y="-147" font-family="Times,serif" font-size="14.00" fill="#000000">1:6</text>
</g>
<!-- XMNCP&#45;&gt;ZDVW -->
<g id="edge30" class="edge">
<title>XMNCP-&gt;ZDVW</title>
<path fill="none" stroke="#000000" d="M271.6666,-180.9378C263.9452,-175.348 256.4659,-168.2078 252.1094,-159.6 248.3249,-152.1224 247.1015,-143.2532 247.0928,-134.9395"/>
<polygon fill="#000000" stroke="#000000" points="250.5932,-135.0245 247.6301,-124.8525 243.6031,-134.6521 250.5932,-135.0245"/>
<text text-anchor="middle" x="265.4453" y="-147" font-family="Times,serif" font-size="14.00" fill="#000000">14:1</text>
</g>
<!-- WPTQ&#45;&gt;PLWSL -->
<g id="edge6" class="edge">
<title>WPTQ-&gt;PLWSL</title>
<path fill="none" stroke="#000000" d="M762.6538,-179.97C754.9654,-173.6966 746.0719,-166.3622 738.1094,-159.6 729.4898,-152.2798 729.3016,-147.4649 719,-142.8 698.9852,-133.7366 568.4914,-119.4643 493.9682,-111.9001"/>
<polygon fill="#000000" stroke="#000000" points="494.1423,-108.3999 483.8414,-110.8785 493.4396,-115.3646 494.1423,-108.3999"/>
<text text-anchor="middle" x="746.9453" y="-147" font-family="Times,serif" font-size="14.00" fill="#000000">1:4</text>
</g>
<!-- WPTQ&#45;&gt;FUEL -->
<g id="edge13" class="edge">
<title>WPTQ-&gt;FUEL</title>
<path fill="none" stroke="#000000" d="M791.453,-177.667C795.6923,-167.0462 798.6167,-153.5992 793,-142.8 759.5714,-78.5269 677.142,-44.2793 626.6643,-28.7275"/>
<polygon fill="#000000" stroke="#000000" points="627.6014,-25.3548 617.0187,-25.8631 625.6085,-32.0652 627.6014,-25.3548"/>
<text text-anchor="middle" x="793.4453" y="-102.6" font-family="Times,serif" font-size="14.00" fill="#000000">12:1</text>
</g>
<!-- WPTQ&#45;&gt;FHTLT -->
<g id="edge17" class="edge">
<title>WPTQ-&gt;FHTLT</title>
<path fill="none" stroke="#000000" d="M778.3464,-177.6239C775.2084,-166.3134 769.6163,-152.141 760,-142.8 747.4395,-130.5991 730.3102,-122.434 714.1132,-117.0146"/>
<polygon fill="#000000" stroke="#000000" points="714.7842,-113.5599 704.1978,-113.9836 712.7378,-120.2541 714.7842,-113.5599"/>
<text text-anchor="middle" x="779.9453" y="-147" font-family="Times,serif" font-size="14.00" fill="#000000">6:6</text>
</g>
<!-- WPTQ&#45;&gt;ZDVW -->
<g id="edge27" class="edge">
<title>WPTQ-&gt;ZDVW</title>
<path fill="none" stroke="#000000" d="M752.3881,-183.928C745.1616,-181.4774 737.3832,-179.1644 730,-177.6 637.1067,-157.9173 604.4669,-196.8189 517.1094,-159.6 506.7057,-155.1675 508.2651,-147.5445 498,-142.8 489.1021,-138.6874 369.3639,-122.4007 299.9324,-113.2061"/>
<polygon fill="#000000" stroke="#000000" points="300.0315,-109.6888 289.6592,-111.8487 299.1146,-116.6285 300.0315,-109.6888"/>
<text text-anchor="middle" x="529.4453" y="-147" font-family="Times,serif" font-size="14.00" fill="#000000">13:1</text>
</g>
<!-- MZWV -->
<g id="node9" class="node">
<title>MZWV</title>
<ellipse fill="none" stroke="#000000" cx="324" cy="-284.4" rx="41.7133" ry="18"/>
<text text-anchor="middle" x="324" y="-280.2" font-family="Times,serif" font-size="14.00" fill="#000000">MZWV</text>
</g>
<!-- MZWV&#45;&gt;PLWSL -->
<g id="edge7" class="edge">
<title>MZWV-&gt;PLWSL</title>
<path fill="none" stroke="#000000" d="M346.1615,-269.0554C353.2711,-263.2541 360.6742,-256.1598 366,-248.4 384.8928,-220.8727 377.1903,-207.9472 391.1094,-177.6 398.5364,-161.4072 400.7204,-157.3498 411,-142.8 413.6414,-139.0614 416.5945,-135.2517 419.6,-131.5776"/>
<polygon fill="#000000" stroke="#000000" points="422.3693,-133.7235 426.1627,-123.8311 417.0282,-129.1987 422.3693,-133.7235"/>
<text text-anchor="middle" x="399.9453" y="-191.4" font-family="Times,serif" font-size="14.00" fill="#000000">2:4</text>
</g>
<!-- MZWV&#45;&gt;XMNCP -->
<g id="edge35" class="edge">
<title>MZWV-&gt;XMNCP</title>
<path fill="none" stroke="#000000" d="M313.2294,-267.0133C310.1316,-261.2777 307.0651,-254.7399 305.1094,-248.4 302.7263,-240.6748 301.2588,-232.0533 300.3593,-224.0537"/>
<polygon fill="#000000" stroke="#000000" points="303.8398,-223.6773 299.4748,-214.0234 296.8669,-224.2923 303.8398,-223.6773"/>
<text text-anchor="middle" x="314.9453" y="-235.8" font-family="Times,serif" font-size="14.00" fill="#000000">1:2</text>
</g>
<!-- MZWV&#45;&gt;FHTLT -->
<g id="edge22" class="edge">
<title>MZWV-&gt;FHTLT</title>
<path fill="none" stroke="#000000" d="M356.3144,-272.821C363.7025,-270.4551 371.5688,-268.1555 379,-266.4 431.9131,-253.9001 448.381,-265.4741 500,-248.4 579.4378,-222.1243 622.9966,-231.3739 666,-159.6 670.3064,-152.4125 671.5376,-143.6262 671.3405,-135.2992"/>
<polygon fill="#000000" stroke="#000000" points="674.811,-134.8084 670.4511,-125.1523 667.8378,-135.4198 674.811,-134.8084"/>
<text text-anchor="middle" x="661.9453" y="-191.4" font-family="Times,serif" font-size="14.00" fill="#000000">6:6</text>
</g>
<!-- MZWV&#45;&gt;ZDVW -->
<g id="edge31" class="edge">
<title>MZWV-&gt;ZDVW</title>
<path fill="none" stroke="#000000" d="M303.3134,-268.7449C289.2179,-258.1448 270.0854,-243.8873 253,-231.6 241.6222,-223.4174 233.6014,-226.0203 227.1094,-213.6 213.8633,-188.2582 224.4487,-155.8011 235.423,-133.3532"/>
<polygon fill="#000000" stroke="#000000" points="238.5728,-134.8823 240.0817,-124.3954 232.3625,-131.6524 238.5728,-134.8823"/>
<text text-anchor="middle" x="236.9453" y="-191.4" font-family="Times,serif" font-size="14.00" fill="#000000">2:1</text>
</g>
<!-- RJRHP&#45;&gt;PLWSL -->
<g id="edge8" class="edge">
<title>RJRHP-&gt;PLWSL</title>
<path fill="none" stroke="#000000" d="M495.4679,-178.58C490.5075,-172.6445 484.9846,-165.8937 480.1094,-159.6 473.3596,-150.8861 466.2233,-141.1509 459.974,-132.4363"/>
<polygon fill="#000000" stroke="#000000" points="462.7177,-130.2553 454.0676,-124.1376 457.0147,-134.3143 462.7177,-130.2553"/>
<text text-anchor="middle" x="488.9453" y="-147" font-family="Times,serif" font-size="14.00" fill="#000000">1:4</text>
</g>
<!-- RJRHP&#45;&gt;FHTLT -->
<g id="edge23" class="edge">
<title>RJRHP-&gt;FHTLT</title>
<path fill="none" stroke="#000000" d="M548.4103,-190.3593C572.9637,-185.5273 604.4929,-176.4368 628,-159.6 637.5324,-152.7725 645.583,-142.7987 651.7858,-133.3536"/>
<polygon fill="#000000" stroke="#000000" points="654.9205,-134.9365 657.1547,-124.5799 648.9497,-131.2827 654.9205,-134.9365"/>
<text text-anchor="middle" x="652.9453" y="-147" font-family="Times,serif" font-size="14.00" fill="#000000">1:6</text>
</g>
<!-- RJRHP&#45;&gt;ZDVW -->
<g id="edge29" class="edge">
<title>RJRHP-&gt;ZDVW</title>
<path fill="none" stroke="#000000" d="M479.8968,-183.5794C451.6873,-172.4745 408.2506,-155.7826 370,-142.8 345.2518,-134.4003 317.2931,-125.8928 294.6973,-119.2587"/>
<polygon fill="#000000" stroke="#000000" points="295.6261,-115.8838 285.046,-116.4429 293.6655,-122.6036 295.6261,-115.8838"/>
<text text-anchor="middle" x="424.9453" y="-147" font-family="Times,serif" font-size="14.00" fill="#000000">3:1</text>
</g>
<!-- BHXH&#45;&gt;XCVML -->
<g id="edge41" class="edge">
<title>BHXH-&gt;XCVML</title>
<path fill="none" stroke="#000000" d="M117.812,-361.2481C123.7614,-359.0407 130.0336,-356.8994 136,-355.2 176.9098,-343.548 188.9578,-348.3768 230,-337.2 251.448,-331.3592 255.6401,-326.162 277.1094,-320.4 319.8338,-308.9336 332.0209,-312.8713 375,-302.4 379.4513,-301.3155 384.0625,-300.0908 388.656,-298.803"/>
<polygon fill="#000000" stroke="#000000" points="389.9861,-302.0615 398.6143,-295.913 388.0351,-295.3388 389.9861,-302.0615"/>
<text text-anchor="middle" x="290.4453" y="-324.6" font-family="Times,serif" font-size="14.00" fill="#000000">12:5</text>
</g>
<!-- BHXH&#45;&gt;MZWV -->
<g id="edge42" class="edge">
<title>BHXH-&gt;MZWV</title>
<path fill="none" stroke="#000000" d="M110.8078,-358.1317C132.8177,-342.9741 163.9991,-321.6591 167.1094,-320.4 209.7353,-303.145 224.3937,-313.5797 269,-302.4 273.1662,-301.3558 277.4747,-300.1584 281.7619,-298.8881"/>
<polygon fill="#000000" stroke="#000000" points="283.1303,-302.1285 291.6492,-295.8295 281.0615,-295.4412 283.1303,-302.1285"/>
<text text-anchor="middle" x="176.9453" y="-324.6" font-family="Times,serif" font-size="14.00" fill="#000000">3:7</text>
</g>
<!-- BHXH&#45;&gt;FUEL -->
<g id="edge11" class="edge">
<title>BHXH-&gt;FUEL</title>
<path fill="none" stroke="#000000" d="M60.9182,-360.8081C49.6927,-354.8563 37.2595,-346.8913 28,-337.2 9.6504,-317.9948 0,-310.9622 0,-284.4 0,-284.4 0,-284.4 0,-106.8 0,-52.2985 402.0253,-27.1339 539.5268,-20.1209"/>
<polygon fill="#000000" stroke="#000000" points="539.9109,-23.6062 549.723,-19.6096 539.5603,-16.615 539.9109,-23.6062"/>
<text text-anchor="middle" x="8.9453" y="-191.4" font-family="Times,serif" font-size="14.00" fill="#000000">6:1</text>
</g>
<!-- LTCX -->
<g id="node18" class="node">
<title>LTCX</title>
<ellipse fill="none" stroke="#000000" cx="65" cy="-284.4" rx="36.4955" ry="18"/>
<text text-anchor="middle" x="65" y="-280.2" font-family="Times,serif" font-size="14.00" fill="#000000">LTCX</text>
</g>
<!-- BHXH&#45;&gt;LTCX -->
<g id="edge46" class="edge">
<title>BHXH-&gt;LTCX</title>
<path fill="none" stroke="#000000" d="M59.8825,-361.2263C49.8563,-355.5254 39.7412,-347.6286 34.1094,-337.2 28.8012,-327.3706 33.0704,-316.7046 39.9427,-307.5489"/>
<polygon fill="#000000" stroke="#000000" points="42.6102,-309.815 46.4768,-299.9509 37.3028,-305.2508 42.6102,-309.815"/>
<text text-anchor="middle" x="43.9453" y="-324.6" font-family="Times,serif" font-size="14.00" fill="#000000">5:5</text>
</g>
<!-- VRPVC&#45;&gt;ZLQW -->
<g id="edge26" class="edge">
<title>VRPVC-&gt;ZLQW</title>
<path fill="none" stroke="#000000" d="M290.0877,-354.9042C288.2793,-344.1548 284.775,-330.7 278,-320.4 270.8877,-309.5871 262.7871,-312.819 255.1094,-302.4 235.121,-275.2746 251.4057,-255.8383 228,-231.6 217.146,-220.3599 202.2301,-212.4597 187.9208,-206.9857"/>
<polygon fill="#000000" stroke="#000000" points="188.7634,-203.5725 178.1686,-203.5724 186.4509,-210.1795 188.7634,-203.5725"/>
<text text-anchor="middle" x="264.9453" y="-280.2" font-family="Times,serif" font-size="14.00" fill="#000000">1:6</text>
</g>
<!-- VRPVC&#45;&gt;BMBT -->
<g id="edge10" class="edge">
<title>VRPVC-&gt;BMBT</title>
<path fill="none" stroke="#000000" d="M334.6238,-369.7401C388.3266,-364.8783 483.2443,-354.6131 563,-337.2 608.8299,-327.194 660.08,-310.7575 694.6196,-298.8785"/>
<polygon fill="#000000" stroke="#000000" points="696.0393,-302.0906 704.3383,-295.5045 693.7435,-295.4778 696.0393,-302.0906"/>
<text text-anchor="middle" x="637.4453" y="-324.6" font-family="Times,serif" font-size="14.00" fill="#000000">14:6</text>
</g>
<!-- VRPVC&#45;&gt;MZWV -->
<g id="edge43" class="edge">
<title>VRPVC-&gt;MZWV</title>
<path fill="none" stroke="#000000" d="M298.4757,-355.23C302.9432,-342.8327 308.9683,-326.113 314.0428,-312.0312"/>
<polygon fill="#000000" stroke="#000000" points="317.4364,-312.9377 317.534,-302.3433 310.851,-310.5645 317.4364,-312.9377"/>
<text text-anchor="middle" x="319.9453" y="-324.6" font-family="Times,serif" font-size="14.00" fill="#000000">2:7</text>
</g>
<!-- VRPVC&#45;&gt;XDBXC -->
<g id="edge38" class="edge">
<title>VRPVC-&gt;XDBXC</title>
<path fill="none" stroke="#000000" d="M258.8437,-361.5581C238.1897,-353.9106 213.9248,-344.0845 205.1094,-337.2 195.8435,-329.9636 187.6995,-319.9962 181.2759,-310.6694"/>
<polygon fill="#000000" stroke="#000000" points="184.0478,-308.5115 175.6639,-302.0337 178.1783,-312.3259 184.0478,-308.5115"/>
<text text-anchor="middle" x="218.4453" y="-324.6" font-family="Times,serif" font-size="14.00" fill="#000000">12:2</text>
</g>
<!-- VRPVC&#45;&gt;LTCX -->
<g id="edge47" class="edge">
<title>VRPVC-&gt;LTCX</title>
<path fill="none" stroke="#000000" d="M260.1345,-360.9791C253.5513,-358.7926 246.6086,-356.7277 240,-355.2 207.7436,-347.7433 119.2686,-356.1331 92.1094,-337.2 83.3889,-331.1208 77.2944,-321.3667 73.1255,-311.8868"/>
<polygon fill="#000000" stroke="#000000" points="76.29,-310.3627 69.4489,-302.2725 69.7517,-312.8631 76.29,-310.3627"/>
<text text-anchor="middle" x="101.9453" y="-324.6" font-family="Times,serif" font-size="14.00" fill="#000000">4:5</text>
</g>
<!-- KTJDG&#45;&gt;XCVML -->
<g id="edge40" class="edge">
<title>KTJDG-&gt;XCVML</title>
<path fill="none" stroke="#000000" d="M654.0602,-366.8418C622.2764,-361.0167 576.5072,-351.1668 538.1094,-337.2 513.9404,-328.4088 488.1503,-315.3588 468.2853,-304.4326"/>
<polygon fill="#000000" stroke="#000000" points="469.7602,-301.2474 459.323,-299.4265 466.3466,-307.3587 469.7602,-301.2474"/>
<text text-anchor="middle" x="550.4453" y="-324.6" font-family="Times,serif" font-size="14.00" fill="#000000">15:5</text>
</g>
<!-- KTJDG&#45;&gt;FUEL -->
<g id="edge12" class="edge">
<title>KTJDG-&gt;FUEL</title>
<path fill="none" stroke="#000000" d="M732.8438,-367.7631C804.5625,-356.8516 948,-329.4032 948,-284.4 948,-284.4 948,-284.4 948,-106.8 948,-42.0891 727.5898,-24.3083 630.2674,-19.6113"/>
<polygon fill="#000000" stroke="#000000" points="630.2852,-16.1085 620.1358,-19.1483 629.9656,-23.1012 630.2852,-16.1085"/>
<text text-anchor="middle" x="960.4453" y="-191.4" font-family="Times,serif" font-size="14.00" fill="#000000">18:1</text>
</g>
<!-- KTJDG&#45;&gt;FHTLT -->
<g id="edge20" class="edge">
<title>KTJDG-&gt;FHTLT</title>
<path fill="none" stroke="#000000" d="M720.2531,-359.563C774.702,-330.2896 888.9199,-257.5664 855,-177.6 846.31,-157.1134 838.5317,-153.4644 819,-142.8 816.5906,-141.4844 756.7246,-127.5911 712.6071,-117.4569"/>
<polygon fill="#000000" stroke="#000000" points="713.1484,-113.9901 702.6188,-115.1648 711.5827,-120.8128 713.1484,-113.9901"/>
<text text-anchor="middle" x="868.4453" y="-235.8" font-family="Times,serif" font-size="14.00" fill="#000000">18:6</text>
</g>
<!-- FHTLT&#45;&gt;FUEL -->
<g id="edge15" class="edge">
<title>FHTLT-&gt;FUEL</title>
<path fill="none" stroke="#000000" d="M650.3824,-89.6785C638.0116,-76.1164 620.5839,-57.0105 606.832,-41.9344"/>
<polygon fill="#000000" stroke="#000000" points="609.347,-39.4979 600.022,-34.4685 604.1753,-44.2154 609.347,-39.4979"/>
<text text-anchor="middle" x="644.4453" y="-58.2" font-family="Times,serif" font-size="14.00" fill="#000000">31:1</text>
</g>
<!-- ZDVW&#45;&gt;FUEL -->
<g id="edge16" class="edge">
<title>ZDVW-&gt;FUEL</title>
<path fill="none" stroke="#000000" d="M285.4859,-97.6313C347.4728,-81.1509 477.4406,-46.5966 543.9226,-28.9212"/>
<polygon fill="#000000" stroke="#000000" points="544.8765,-32.2892 553.6415,-26.3372 543.0779,-25.5242 544.8765,-32.2892"/>
<text text-anchor="middle" x="459.4453" y="-58.2" font-family="Times,serif" font-size="14.00" fill="#000000">37:1</text>
</g>
<!-- XDBXC&#45;&gt;ZLQW -->
<g id="edge24" class="edge">
<title>XDBXC-&gt;ZLQW</title>
<path fill="none" stroke="#000000" d="M154.888,-266.689C151.852,-261.0442 148.9068,-254.6398 147.1094,-248.4 144.8798,-240.6596 143.6949,-232.0333 143.1009,-224.034"/>
<polygon fill="#000000" stroke="#000000" points="146.5952,-223.8282 142.6221,-214.0065 139.6031,-224.1621 146.5952,-223.8282"/>
<text text-anchor="middle" x="160.4453" y="-235.8" font-family="Times,serif" font-size="14.00" fill="#000000">15:6</text>
</g>
<!-- XDBXC&#45;&gt;XMNCP -->
<g id="edge36" class="edge">
<title>XDBXC-&gt;XMNCP</title>
<path fill="none" stroke="#000000" d="M189.1668,-268.9322C210.7755,-254.5047 243.1964,-232.8583 267.218,-216.8199"/>
<polygon fill="#000000" stroke="#000000" points="269.2792,-219.6521 275.6524,-211.1885 265.3922,-213.8305 269.2792,-219.6521"/>
<text text-anchor="middle" x="257.4453" y="-235.8" font-family="Times,serif" font-size="14.00" fill="#000000">17:2</text>
</g>
<!-- LTCX&#45;&gt;ZLQW -->
<g id="edge25" class="edge">
<title>LTCX-&gt;ZLQW</title>
<path fill="none" stroke="#000000" d="M79.6712,-267.6974C91.4712,-254.2635 108.2186,-235.1973 121.5275,-220.0456"/>
<polygon fill="#000000" stroke="#000000" points="124.1596,-222.3526 128.1294,-212.5296 118.9003,-217.733 124.1596,-222.3526"/>
<text text-anchor="middle" x="119.9453" y="-235.8" font-family="Times,serif" font-size="14.00" fill="#000000">2:6</text>
</g>
<!-- LTCX&#45;&gt;ZDVW -->
<g id="edge28" class="edge">
<title>LTCX-&gt;ZDVW</title>
<path fill="none" stroke="#000000" d="M60.356,-266.226C55.6299,-243.2879 51.3779,-203.685 70.1094,-177.6 100.185,-135.7175 158.8588,-118.6087 201.243,-111.6213"/>
<polygon fill="#000000" stroke="#000000" points="202.0049,-115.046 211.3697,-110.0911 200.959,-108.1246 202.0049,-115.046"/>
<text text-anchor="middle" x="83.4453" y="-191.4" font-family="Times,serif" font-size="14.00" fill="#000000">10:1</text>
</g>
</g>
</svg>