<?xml version="1.0" encoding="UTF-8" standalone="no"?>
<!DOCTYPE svg PUBLIC "-//W3C//DTD SVG 1.1//EN" "http://www.w3.org/Graphics/SVG/1.1/DTD/svg11.dtd">
<!-- Generated by graphviz version 2.40.1 (20161225.0304)
 -->
<!-- Title: %0 Pages: 1 -->
<svg width="219pt" height="488pt" viewBox="0.00 0.00 219.18 488.00" xmlns="http://www.w3.org/2000/svg" xmlns:xlink="http://www.w3.org/1999/xlink">
<g id="graph0" class="graph" transform="scale(1 1) rotate(0) translate(4 484)">
<title>%0</title>
<polygon fill="#ffffff" stroke="transparent" points="-4,4 -4,-484 215.175,-484 215.175,4 -4,4"/>
<!-- ORE -->
<g id="node1" class="node">
<title>ORE</title>
<ellipse fill="none" stroke="#000000" cx="146.175" cy="-462" rx="30.1958" ry="18"/>
<text text-anchor="middle" x="146.175" y="-457.8" font-family="Times,serif" font-size="14.00" fill="#000000">ORE</text>
</g>
<!-- A -->
<g id="node2" class="node">
<title>A</title>
<ellipse fill="none" stroke="#000000" cx="111.175" cy="-373.2" rx="27" ry="18"/>
<text text-anchor="middle" x="111.175" y="-369" font-family="Times,serif" font-size="14.00" fill="#000000">A</text>
</g>
<!-- ORE&#45;&gt;A -->
<g id="edge1" class="edge">
<title>ORE-&gt;A</title>
<path fill="none" stroke="#000000" d="M134.6034,-445.3493C130.8961,-439.4434 127.0419,-432.6169 124.2844,-426 121.0145,-418.1536 118.4235,-409.2983 116.4382,-401.1133"/>
<polygon fill="#000000" stroke="#000000" points="119.828,-400.233 114.2418,-391.2305 112.9947,-401.7517 119.828,-400.233"/>
<text text-anchor="middle" x="141.1203" y="-413.4" font-family="Times,serif" font-size="14.00" fill="#000000">10:10</text>
</g>
<!-- B -->
<g id="node3" class="node">
<title>B</title>
<ellipse fill="none" stroke="#000000" cx="184.175" cy="-373.2" rx="27" ry="18"/>
<text text-anchor="middle" x="184.175" y="-369" font-family="Times,serif" font-size="14.00" fill="#000000">B</text>
</g>
<!-- ORE&#45;&gt;B -->
<g id="edge2" class="edge">
<title>ORE-&gt;B</title>
<path fill="none" stroke="#000000" d="M153.6826,-444.456C159.0954,-431.8071 166.5015,-414.5002 172.6592,-400.1105"/>
<polygon fill="#000000" stroke="#000000" points="175.9665,-401.2782 176.683,-390.7076 169.531,-398.5242 175.9665,-401.2782"/>
<text text-anchor="middle" x="178.1203" y="-413.4" font-family="Times,serif" font-size="14.00" fill="#000000">1:1</text>
</g>
<!-- C -->
<g id="node4" class="node">
<title>C</title>
<ellipse fill="none" stroke="#000000" cx="174.175" cy="-284.4" rx="27" ry="18"/>
<text text-anchor="middle" x="174.175" y="-280.2" font-family="Times,serif" font-size="14.00" fill="#000000">C</text>
</g>
<!-- A&#45;&gt;C -->
<g id="edge3" class="edge">
<title>A-&gt;C</title>
<path fill="none" stroke="#000000" d="M122.7302,-356.9127C132.1731,-343.6027 145.6782,-324.5669 156.482,-309.3388"/>
<polygon fill="#000000" stroke="#000000" points="159.548,-311.0659 162.4797,-300.8848 153.8388,-307.0155 159.548,-311.0659"/>
<text text-anchor="middle" x="158.1203" y="-324.6" font-family="Times,serif" font-size="14.00" fill="#000000">7:1</text>
</g>
<!-- D -->
<g id="node5" class="node">
<title>D</title>
<ellipse fill="none" stroke="#000000" cx="120.175" cy="-195.6" rx="27" ry="18"/>
<text text-anchor="middle" x="120.175" y="-191.4" font-family="Times,serif" font-size="14.00" fill="#000000">D</text>
</g>
<!-- A&#45;&gt;D -->
<g id="edge5" class="edge">
<title>A-&gt;D</title>
<path fill="none" stroke="#000000" d="M112.0875,-355.1934C113.6575,-324.212 116.8808,-260.606 118.7493,-223.7346"/>
<polygon fill="#000000" stroke="#000000" points="122.2494,-223.8186 119.2601,-213.6543 115.2584,-223.4643 122.2494,-223.8186"/>
<text text-anchor="middle" x="126.1203" y="-280.2" font-family="Times,serif" font-size="14.00" fill="#000000">7:1</text>
</g>
<!-- E -->
<g id="node6" class="node">
<title>E</title>
<ellipse fill="none" stroke="#000000" cx="74.175" cy="-106.8" rx="27" ry="18"/>
<text text-anchor="middle" x="74.175" y="-102.6" font-family="Times,serif" font-size="14.00" fill="#000000">E</text>
</g>
<!-- A&#45;&gt;E -->
<g id="edge7" class="edge">
<title>A-&gt;E</title>
<path fill="none" stroke="#000000" d="M107.6573,-355.0754C102.0271,-325.5406 90.9389,-265.1469 84.175,-213.6 80.6929,-187.0631 77.9688,-156.6616 76.249,-135.0983"/>
<polygon fill="#000000" stroke="#000000" points="79.7277,-134.6864 75.4646,-124.9871 72.7487,-135.2279 79.7277,-134.6864"/>
<text text-anchor="middle" x="98.1203" y="-235.8" font-family="Times,serif" font-size="14.00" fill="#000000">7:1</text>
</g>
<!-- FUEL -->
<g id="node7" class="node">
<title>FUEL</title>
<ellipse fill="none" stroke="#000000" cx="35.175" cy="-18" rx="35.3509" ry="18"/>
<text text-anchor="middle" x="35.175" y="-13.8" font-family="Times,serif" font-size="14.00" fill="#000000">FUEL</text>
</g>
<!-- A&#45;&gt;FUEL -->
<g id="edge9" class="edge">
<title>A-&gt;FUEL</title>
<path fill="none" stroke="#000000" d="M88.4334,-363.3602C61.1896,-349.8557 19.175,-322.8039 19.175,-284.4 19.175,-284.4 19.175,-284.4 19.175,-106.8 19.175,-86.1737 23.4078,-63.2735 27.5192,-45.8951"/>
<polygon fill="#000000" stroke="#000000" points="30.9985,-46.4079 30.0244,-35.8579 24.2068,-44.7126 30.9985,-46.4079"/>
<text text-anchor="middle" x="28.1203" y="-191.4" font-family="Times,serif" font-size="14.00" fill="#000000">7:1</text>
</g>
<!-- B&#45;&gt;C -->
<g id="edge4" class="edge">
<title>B-&gt;C</title>
<path fill="none" stroke="#000000" d="M182.1514,-355.23C180.7779,-343.0338 178.9334,-326.6543 177.364,-312.7187"/>
<polygon fill="#000000" stroke="#000000" points="180.8271,-312.1936 176.23,-302.6481 173.8711,-312.977 180.8271,-312.1936"/>
<text text-anchor="middle" x="189.1203" y="-324.6" font-family="Times,serif" font-size="14.00" fill="#000000">1:1</text>
</g>
<!-- C&#45;&gt;D -->
<g id="edge6" class="edge">
<title>C-&gt;D</title>
<path fill="none" stroke="#000000" d="M164.018,-267.6974C156.0736,-254.6333 144.89,-236.2425 135.8066,-221.3053"/>
<polygon fill="#000000" stroke="#000000" points="138.6564,-219.2553 130.47,-212.5296 132.6754,-222.8924 138.6564,-219.2553"/>
<text text-anchor="middle" x="161.1203" y="-235.8" font-family="Times,serif" font-size="14.00" fill="#000000">1:1</text>
</g>
<!-- D&#45;&gt;E -->
<g id="edge8" class="edge">
<title>D-&gt;E</title>
<path fill="none" stroke="#000000" d="M111.3057,-178.4785C104.6238,-165.5795 95.3441,-147.6655 87.7333,-132.9734"/>
<polygon fill="#000000" stroke="#000000" points="90.7245,-131.1384 83.017,-123.869 84.509,-134.3582 90.7245,-131.1384"/>
<text text-anchor="middle" x="111.1203" y="-147" font-family="Times,serif" font-size="14.00" fill="#000000">1:1</text>
</g>
<!-- E&#45;&gt;FUEL -->
<g id="edge10" class="edge">
<title>E-&gt;FUEL</title>
<path fill="none" stroke="#000000" d="M66.4699,-89.256C60.9507,-76.6892 53.4123,-59.5248 47.1171,-45.1912"/>
<polygon fill="#000000" stroke="#000000" points="50.2234,-43.56 42.9976,-35.8115 43.8143,-46.3748 50.2234,-43.56"/>
<text text-anchor="middle" x="67.1203" y="-58.2" font-family="Times,serif" font-size="14.00" fill="#000000">1:1</text>
</g>
</g>
</svg>